<?xml version="1.0" encoding="utf-8" standalone="no"?>
<!DOCTYPE svg PUBLIC "-//W3C//DTD SVG 1.1//EN"
  "http://www.w3.org/Graphics/SVG/1.1/DTD/svg11.dtd">
<svg xmlns:xlink="http://www.w3.org/1999/xlink" width="778.125pt" height="230.4pt" viewBox="0 0 778.125 230.4" xmlns="http://www.w3.org/2000/svg" version="1.1">
 <metadata>
  <rdf:RDF xmlns:dc="http://purl.org/dc/elements/1.1/" xmlns:cc="http://creativecommons.org/ns#" xmlns:rdf="http://www.w3.org/1999/02/22-rdf-syntax-ns#">
   <cc:Work>
    <dc:type rdf:resource="http://purl.org/dc/dcmitype/StillImage"/>
    <dc:date>2022-01-18T14:06:34.268120</dc:date>
    <dc:format>image/svg+xml</dc:format>
    <dc:creator>
     <cc:Agent>
      <dc:title>Matplotlib v3.5.0, https://matplotlib.org/</dc:title>
     </cc:Agent>
    </dc:creator>
   </cc:Work>
  </rdf:RDF>
 </metadata>
 <defs>
  <style type="text/css">*{stroke-linejoin: round; stroke-linecap: butt}</style>
 </defs>
 <g id="figure_1">
  <g id="patch_1">
   <path d="M 0 230.4 
L 778.125 230.4 
L 778.125 0 
L 0 0 
z
" style="fill: #ffffff"/>
  </g>
  <g id="axes_1">
   <g id="patch_2">
    <path d="M 42.11149 194.936229 
L 385.171875 194.936229 
L 385.171875 18.118365 
L 42.11149 18.118365 
z
" style="fill: #eaeaf2"/>
   </g>
   <g id="matplotlib.axis_1">
    <g id="xtick_1">
     <g id="line2d_1">
      <path d="M 127.876586 194.936229 
L 127.876586 18.118365 
" clip-path="url(#p5af8156e50)" style="fill: none; stroke: #ffffff; stroke-linecap: round"/>
     </g>
     <g id="text_1">
      <!-- 1 Concurrent ResNet-50 -->
      <g style="fill: #262626" transform="translate(61.890336 212.79451)scale(0.11 -0.11)">
       <defs>
        <path id="DejaVuSans-31" d="M 794 531 
L 1825 531 
L 1825 4091 
L 703 3866 
L 703 4441 
L 1819 4666 
L 2450 4666 
L 2450 531 
L 3481 531 
L 3481 0 
L 794 0 
L 794 531 
z
" transform="scale(0.015625)"/>
        <path id="DejaVuSans-20" transform="scale(0.015625)"/>
        <path id="DejaVuSans-43" d="M 4122 4306 
L 4122 3641 
Q 3803 3938 3442 4084 
Q 3081 4231 2675 4231 
Q 1875 4231 1450 3742 
Q 1025 3253 1025 2328 
Q 1025 1406 1450 917 
Q 1875 428 2675 428 
Q 3081 428 3442 575 
Q 3803 722 4122 1019 
L 4122 359 
Q 3791 134 3420 21 
Q 3050 -91 2638 -91 
Q 1578 -91 968 557 
Q 359 1206 359 2328 
Q 359 3453 968 4101 
Q 1578 4750 2638 4750 
Q 3056 4750 3426 4639 
Q 3797 4528 4122 4306 
z
" transform="scale(0.015625)"/>
        <path id="DejaVuSans-6f" d="M 1959 3097 
Q 1497 3097 1228 2736 
Q 959 2375 959 1747 
Q 959 1119 1226 758 
Q 1494 397 1959 397 
Q 2419 397 2687 759 
Q 2956 1122 2956 1747 
Q 2956 2369 2687 2733 
Q 2419 3097 1959 3097 
z
M 1959 3584 
Q 2709 3584 3137 3096 
Q 3566 2609 3566 1747 
Q 3566 888 3137 398 
Q 2709 -91 1959 -91 
Q 1206 -91 779 398 
Q 353 888 353 1747 
Q 353 2609 779 3096 
Q 1206 3584 1959 3584 
z
" transform="scale(0.015625)"/>
        <path id="DejaVuSans-6e" d="M 3513 2113 
L 3513 0 
L 2938 0 
L 2938 2094 
Q 2938 2591 2744 2837 
Q 2550 3084 2163 3084 
Q 1697 3084 1428 2787 
Q 1159 2491 1159 1978 
L 1159 0 
L 581 0 
L 581 3500 
L 1159 3500 
L 1159 2956 
Q 1366 3272 1645 3428 
Q 1925 3584 2291 3584 
Q 2894 3584 3203 3211 
Q 3513 2838 3513 2113 
z
" transform="scale(0.015625)"/>
        <path id="DejaVuSans-63" d="M 3122 3366 
L 3122 2828 
Q 2878 2963 2633 3030 
Q 2388 3097 2138 3097 
Q 1578 3097 1268 2742 
Q 959 2388 959 1747 
Q 959 1106 1268 751 
Q 1578 397 2138 397 
Q 2388 397 2633 464 
Q 2878 531 3122 666 
L 3122 134 
Q 2881 22 2623 -34 
Q 2366 -91 2075 -91 
Q 1284 -91 818 406 
Q 353 903 353 1747 
Q 353 2603 823 3093 
Q 1294 3584 2113 3584 
Q 2378 3584 2631 3529 
Q 2884 3475 3122 3366 
z
" transform="scale(0.015625)"/>
        <path id="DejaVuSans-75" d="M 544 1381 
L 544 3500 
L 1119 3500 
L 1119 1403 
Q 1119 906 1312 657 
Q 1506 409 1894 409 
Q 2359 409 2629 706 
Q 2900 1003 2900 1516 
L 2900 3500 
L 3475 3500 
L 3475 0 
L 2900 0 
L 2900 538 
Q 2691 219 2414 64 
Q 2138 -91 1772 -91 
Q 1169 -91 856 284 
Q 544 659 544 1381 
z
M 1991 3584 
L 1991 3584 
z
" transform="scale(0.015625)"/>
        <path id="DejaVuSans-72" d="M 2631 2963 
Q 2534 3019 2420 3045 
Q 2306 3072 2169 3072 
Q 1681 3072 1420 2755 
Q 1159 2438 1159 1844 
L 1159 0 
L 581 0 
L 581 3500 
L 1159 3500 
L 1159 2956 
Q 1341 3275 1631 3429 
Q 1922 3584 2338 3584 
Q 2397 3584 2469 3576 
Q 2541 3569 2628 3553 
L 2631 2963 
z
" transform="scale(0.015625)"/>
        <path id="DejaVuSans-65" d="M 3597 1894 
L 3597 1613 
L 953 1613 
Q 991 1019 1311 708 
Q 1631 397 2203 397 
Q 2534 397 2845 478 
Q 3156 559 3463 722 
L 3463 178 
Q 3153 47 2828 -22 
Q 2503 -91 2169 -91 
Q 1331 -91 842 396 
Q 353 884 353 1716 
Q 353 2575 817 3079 
Q 1281 3584 2069 3584 
Q 2775 3584 3186 3129 
Q 3597 2675 3597 1894 
z
M 3022 2063 
Q 3016 2534 2758 2815 
Q 2500 3097 2075 3097 
Q 1594 3097 1305 2825 
Q 1016 2553 972 2059 
L 3022 2063 
z
" transform="scale(0.015625)"/>
        <path id="DejaVuSans-74" d="M 1172 4494 
L 1172 3500 
L 2356 3500 
L 2356 3053 
L 1172 3053 
L 1172 1153 
Q 1172 725 1289 603 
Q 1406 481 1766 481 
L 2356 481 
L 2356 0 
L 1766 0 
Q 1100 0 847 248 
Q 594 497 594 1153 
L 594 3053 
L 172 3053 
L 172 3500 
L 594 3500 
L 594 4494 
L 1172 4494 
z
" transform="scale(0.015625)"/>
        <path id="DejaVuSans-52" d="M 2841 2188 
Q 3044 2119 3236 1894 
Q 3428 1669 3622 1275 
L 4263 0 
L 3584 0 
L 2988 1197 
Q 2756 1666 2539 1819 
Q 2322 1972 1947 1972 
L 1259 1972 
L 1259 0 
L 628 0 
L 628 4666 
L 2053 4666 
Q 2853 4666 3247 4331 
Q 3641 3997 3641 3322 
Q 3641 2881 3436 2590 
Q 3231 2300 2841 2188 
z
M 1259 4147 
L 1259 2491 
L 2053 2491 
Q 2509 2491 2742 2702 
Q 2975 2913 2975 3322 
Q 2975 3731 2742 3939 
Q 2509 4147 2053 4147 
L 1259 4147 
z
" transform="scale(0.015625)"/>
        <path id="DejaVuSans-73" d="M 2834 3397 
L 2834 2853 
Q 2591 2978 2328 3040 
Q 2066 3103 1784 3103 
Q 1356 3103 1142 2972 
Q 928 2841 928 2578 
Q 928 2378 1081 2264 
Q 1234 2150 1697 2047 
L 1894 2003 
Q 2506 1872 2764 1633 
Q 3022 1394 3022 966 
Q 3022 478 2636 193 
Q 2250 -91 1575 -91 
Q 1294 -91 989 -36 
Q 684 19 347 128 
L 347 722 
Q 666 556 975 473 
Q 1284 391 1588 391 
Q 1994 391 2212 530 
Q 2431 669 2431 922 
Q 2431 1156 2273 1281 
Q 2116 1406 1581 1522 
L 1381 1569 
Q 847 1681 609 1914 
Q 372 2147 372 2553 
Q 372 3047 722 3315 
Q 1072 3584 1716 3584 
Q 2034 3584 2315 3537 
Q 2597 3491 2834 3397 
z
" transform="scale(0.015625)"/>
        <path id="DejaVuSans-4e" d="M 628 4666 
L 1478 4666 
L 3547 763 
L 3547 4666 
L 4159 4666 
L 4159 0 
L 3309 0 
L 1241 3903 
L 1241 0 
L 628 0 
L 628 4666 
z
" transform="scale(0.015625)"/>
        <path id="DejaVuSans-2d" d="M 313 2009 
L 1997 2009 
L 1997 1497 
L 313 1497 
L 313 2009 
z
" transform="scale(0.015625)"/>
        <path id="DejaVuSans-35" d="M 691 4666 
L 3169 4666 
L 3169 4134 
L 1269 4134 
L 1269 2991 
Q 1406 3038 1543 3061 
Q 1681 3084 1819 3084 
Q 2600 3084 3056 2656 
Q 3513 2228 3513 1497 
Q 3513 744 3044 326 
Q 2575 -91 1722 -91 
Q 1428 -91 1123 -41 
Q 819 9 494 109 
L 494 744 
Q 775 591 1075 516 
Q 1375 441 1709 441 
Q 2250 441 2565 725 
Q 2881 1009 2881 1497 
Q 2881 1984 2565 2268 
Q 2250 2553 1709 2553 
Q 1456 2553 1204 2497 
Q 953 2441 691 2322 
L 691 4666 
z
" transform="scale(0.015625)"/>
        <path id="DejaVuSans-30" d="M 2034 4250 
Q 1547 4250 1301 3770 
Q 1056 3291 1056 2328 
Q 1056 1369 1301 889 
Q 1547 409 2034 409 
Q 2525 409 2770 889 
Q 3016 1369 3016 2328 
Q 3016 3291 2770 3770 
Q 2525 4250 2034 4250 
z
M 2034 4750 
Q 2819 4750 3233 4129 
Q 3647 3509 3647 2328 
Q 3647 1150 3233 529 
Q 2819 -91 2034 -91 
Q 1250 -91 836 529 
Q 422 1150 422 2328 
Q 422 3509 836 4129 
Q 1250 4750 2034 4750 
z
" transform="scale(0.015625)"/>
       </defs>
       <use xlink:href="#DejaVuSans-31"/>
       <use xlink:href="#DejaVuSans-20" x="63.623047"/>
       <use xlink:href="#DejaVuSans-43" x="95.410156"/>
       <use xlink:href="#DejaVuSans-6f" x="165.234375"/>
       <use xlink:href="#DejaVuSans-6e" x="226.416016"/>
       <use xlink:href="#DejaVuSans-63" x="289.794922"/>
       <use xlink:href="#DejaVuSans-75" x="344.775391"/>
       <use xlink:href="#DejaVuSans-72" x="408.154297"/>
       <use xlink:href="#DejaVuSans-72" x="447.517578"/>
       <use xlink:href="#DejaVuSans-65" x="486.380859"/>
       <use xlink:href="#DejaVuSans-6e" x="547.904297"/>
       <use xlink:href="#DejaVuSans-74" x="611.283203"/>
       <use xlink:href="#DejaVuSans-20" x="650.492188"/>
       <use xlink:href="#DejaVuSans-52" x="682.279297"/>
       <use xlink:href="#DejaVuSans-65" x="747.261719"/>
       <use xlink:href="#DejaVuSans-73" x="808.785156"/>
       <use xlink:href="#DejaVuSans-4e" x="860.884766"/>
       <use xlink:href="#DejaVuSans-65" x="935.689453"/>
       <use xlink:href="#DejaVuSans-74" x="997.212891"/>
       <use xlink:href="#DejaVuSans-2d" x="1036.421875"/>
       <use xlink:href="#DejaVuSans-35" x="1072.505859"/>
       <use xlink:href="#DejaVuSans-30" x="1136.128906"/>
      </g>
      <!-- (8xA100 GPUs) -->
      <g style="fill: #262626" transform="translate(86.353305 225.112104)scale(0.11 -0.11)">
       <defs>
        <path id="DejaVuSans-28" d="M 1984 4856 
Q 1566 4138 1362 3434 
Q 1159 2731 1159 2009 
Q 1159 1288 1364 580 
Q 1569 -128 1984 -844 
L 1484 -844 
Q 1016 -109 783 600 
Q 550 1309 550 2009 
Q 550 2706 781 3412 
Q 1013 4119 1484 4856 
L 1984 4856 
z
" transform="scale(0.015625)"/>
        <path id="DejaVuSans-38" d="M 2034 2216 
Q 1584 2216 1326 1975 
Q 1069 1734 1069 1313 
Q 1069 891 1326 650 
Q 1584 409 2034 409 
Q 2484 409 2743 651 
Q 3003 894 3003 1313 
Q 3003 1734 2745 1975 
Q 2488 2216 2034 2216 
z
M 1403 2484 
Q 997 2584 770 2862 
Q 544 3141 544 3541 
Q 544 4100 942 4425 
Q 1341 4750 2034 4750 
Q 2731 4750 3128 4425 
Q 3525 4100 3525 3541 
Q 3525 3141 3298 2862 
Q 3072 2584 2669 2484 
Q 3125 2378 3379 2068 
Q 3634 1759 3634 1313 
Q 3634 634 3220 271 
Q 2806 -91 2034 -91 
Q 1263 -91 848 271 
Q 434 634 434 1313 
Q 434 1759 690 2068 
Q 947 2378 1403 2484 
z
M 1172 3481 
Q 1172 3119 1398 2916 
Q 1625 2713 2034 2713 
Q 2441 2713 2670 2916 
Q 2900 3119 2900 3481 
Q 2900 3844 2670 4047 
Q 2441 4250 2034 4250 
Q 1625 4250 1398 4047 
Q 1172 3844 1172 3481 
z
" transform="scale(0.015625)"/>
        <path id="DejaVuSans-78" d="M 3513 3500 
L 2247 1797 
L 3578 0 
L 2900 0 
L 1881 1375 
L 863 0 
L 184 0 
L 1544 1831 
L 300 3500 
L 978 3500 
L 1906 2253 
L 2834 3500 
L 3513 3500 
z
" transform="scale(0.015625)"/>
        <path id="DejaVuSans-41" d="M 2188 4044 
L 1331 1722 
L 3047 1722 
L 2188 4044 
z
M 1831 4666 
L 2547 4666 
L 4325 0 
L 3669 0 
L 3244 1197 
L 1141 1197 
L 716 0 
L 50 0 
L 1831 4666 
z
" transform="scale(0.015625)"/>
        <path id="DejaVuSans-47" d="M 3809 666 
L 3809 1919 
L 2778 1919 
L 2778 2438 
L 4434 2438 
L 4434 434 
Q 4069 175 3628 42 
Q 3188 -91 2688 -91 
Q 1594 -91 976 548 
Q 359 1188 359 2328 
Q 359 3472 976 4111 
Q 1594 4750 2688 4750 
Q 3144 4750 3555 4637 
Q 3966 4525 4313 4306 
L 4313 3634 
Q 3963 3931 3569 4081 
Q 3175 4231 2741 4231 
Q 1884 4231 1454 3753 
Q 1025 3275 1025 2328 
Q 1025 1384 1454 906 
Q 1884 428 2741 428 
Q 3075 428 3337 486 
Q 3600 544 3809 666 
z
" transform="scale(0.015625)"/>
        <path id="DejaVuSans-50" d="M 1259 4147 
L 1259 2394 
L 2053 2394 
Q 2494 2394 2734 2622 
Q 2975 2850 2975 3272 
Q 2975 3691 2734 3919 
Q 2494 4147 2053 4147 
L 1259 4147 
z
M 628 4666 
L 2053 4666 
Q 2838 4666 3239 4311 
Q 3641 3956 3641 3272 
Q 3641 2581 3239 2228 
Q 2838 1875 2053 1875 
L 1259 1875 
L 1259 0 
L 628 0 
L 628 4666 
z
" transform="scale(0.015625)"/>
        <path id="DejaVuSans-55" d="M 556 4666 
L 1191 4666 
L 1191 1831 
Q 1191 1081 1462 751 
Q 1734 422 2344 422 
Q 2950 422 3222 751 
Q 3494 1081 3494 1831 
L 3494 4666 
L 4128 4666 
L 4128 1753 
Q 4128 841 3676 375 
Q 3225 -91 2344 -91 
Q 1459 -91 1007 375 
Q 556 841 556 1753 
L 556 4666 
z
" transform="scale(0.015625)"/>
        <path id="DejaVuSans-29" d="M 513 4856 
L 1013 4856 
Q 1481 4119 1714 3412 
Q 1947 2706 1947 2009 
Q 1947 1309 1714 600 
Q 1481 -109 1013 -844 
L 513 -844 
Q 928 -128 1133 580 
Q 1338 1288 1338 2009 
Q 1338 2731 1133 3434 
Q 928 4138 513 4856 
z
" transform="scale(0.015625)"/>
       </defs>
       <use xlink:href="#DejaVuSans-28"/>
       <use xlink:href="#DejaVuSans-38" x="39.013672"/>
       <use xlink:href="#DejaVuSans-78" x="102.636719"/>
       <use xlink:href="#DejaVuSans-41" x="161.816406"/>
       <use xlink:href="#DejaVuSans-31" x="230.224609"/>
       <use xlink:href="#DejaVuSans-30" x="293.847656"/>
       <use xlink:href="#DejaVuSans-30" x="357.470703"/>
       <use xlink:href="#DejaVuSans-20" x="421.09375"/>
       <use xlink:href="#DejaVuSans-47" x="452.880859"/>
       <use xlink:href="#DejaVuSans-50" x="530.371094"/>
       <use xlink:href="#DejaVuSans-55" x="590.673828"/>
       <use xlink:href="#DejaVuSans-73" x="663.867188"/>
       <use xlink:href="#DejaVuSans-29" x="715.966797"/>
      </g>
     </g>
    </g>
    <g id="xtick_2">
     <g id="line2d_2">
      <path d="M 299.406779 194.936229 
L 299.406779 18.118365 
" clip-path="url(#p5af8156e50)" style="fill: none; stroke: #ffffff; stroke-linecap: round"/>
     </g>
     <g id="text_2">
      <!-- 8 Concurrent ResNet-18's -->
      <g style="fill: #262626" transform="translate(229.043732 212.79451)scale(0.11 -0.11)">
       <defs>
        <path id="DejaVuSans-27" d="M 1147 4666 
L 1147 2931 
L 616 2931 
L 616 4666 
L 1147 4666 
z
" transform="scale(0.015625)"/>
       </defs>
       <use xlink:href="#DejaVuSans-38"/>
       <use xlink:href="#DejaVuSans-20" x="63.623047"/>
       <use xlink:href="#DejaVuSans-43" x="95.410156"/>
       <use xlink:href="#DejaVuSans-6f" x="165.234375"/>
       <use xlink:href="#DejaVuSans-6e" x="226.416016"/>
       <use xlink:href="#DejaVuSans-63" x="289.794922"/>
       <use xlink:href="#DejaVuSans-75" x="344.775391"/>
       <use xlink:href="#DejaVuSans-72" x="408.154297"/>
       <use xlink:href="#DejaVuSans-72" x="447.517578"/>
       <use xlink:href="#DejaVuSans-65" x="486.380859"/>
       <use xlink:href="#DejaVuSans-6e" x="547.904297"/>
       <use xlink:href="#DejaVuSans-74" x="611.283203"/>
       <use xlink:href="#DejaVuSans-20" x="650.492188"/>
       <use xlink:href="#DejaVuSans-52" x="682.279297"/>
       <use xlink:href="#DejaVuSans-65" x="747.261719"/>
       <use xlink:href="#DejaVuSans-73" x="808.785156"/>
       <use xlink:href="#DejaVuSans-4e" x="860.884766"/>
       <use xlink:href="#DejaVuSans-65" x="935.689453"/>
       <use xlink:href="#DejaVuSans-74" x="997.212891"/>
       <use xlink:href="#DejaVuSans-2d" x="1036.421875"/>
       <use xlink:href="#DejaVuSans-31" x="1072.505859"/>
       <use xlink:href="#DejaVuSans-38" x="1136.128906"/>
       <use xlink:href="#DejaVuSans-27" x="1199.751953"/>
       <use xlink:href="#DejaVuSans-73" x="1227.242188"/>
      </g>
      <!-- (1xA100 GPU) -->
      <g style="fill: #262626" transform="translate(260.748654 225.112104)scale(0.11 -0.11)">
       <use xlink:href="#DejaVuSans-28"/>
       <use xlink:href="#DejaVuSans-31" x="39.013672"/>
       <use xlink:href="#DejaVuSans-78" x="102.636719"/>
       <use xlink:href="#DejaVuSans-41" x="161.816406"/>
       <use xlink:href="#DejaVuSans-31" x="230.224609"/>
       <use xlink:href="#DejaVuSans-30" x="293.847656"/>
       <use xlink:href="#DejaVuSans-30" x="357.470703"/>
       <use xlink:href="#DejaVuSans-20" x="421.09375"/>
       <use xlink:href="#DejaVuSans-47" x="452.880859"/>
       <use xlink:href="#DejaVuSans-50" x="530.371094"/>
       <use xlink:href="#DejaVuSans-55" x="590.673828"/>
       <use xlink:href="#DejaVuSans-29" x="663.867188"/>
      </g>
     </g>
    </g>
   </g>
   <g id="matplotlib.axis_2">
    <g id="ytick_1">
     <g id="line2d_3">
      <path d="M 42.11149 194.936229 
L 385.171875 194.936229 
" clip-path="url(#p5af8156e50)" style="fill: none; stroke: #ffffff; stroke-linecap: round"/>
     </g>
     <g id="text_3">
      <!-- 0 -->
      <g style="fill: #262626" transform="translate(25.61274 199.115369)scale(0.11 -0.11)">
       <use xlink:href="#DejaVuSans-30"/>
      </g>
     </g>
    </g>
    <g id="ytick_2">
     <g id="line2d_4">
      <path d="M 42.11149 170.530727 
L 385.171875 170.530727 
" clip-path="url(#p5af8156e50)" style="fill: none; stroke: #ffffff; stroke-linecap: round"/>
     </g>
     <g id="text_4">
      <!-- 5 -->
      <g style="fill: #262626" transform="translate(25.61274 174.709867)scale(0.11 -0.11)">
       <use xlink:href="#DejaVuSans-35"/>
      </g>
     </g>
    </g>
    <g id="ytick_3">
     <g id="line2d_5">
      <path d="M 42.11149 146.125224 
L 385.171875 146.125224 
" clip-path="url(#p5af8156e50)" style="fill: none; stroke: #ffffff; stroke-linecap: round"/>
     </g>
     <g id="text_5">
      <!-- 10 -->
      <g style="fill: #262626" transform="translate(18.61399 150.304365)scale(0.11 -0.11)">
       <use xlink:href="#DejaVuSans-31"/>
       <use xlink:href="#DejaVuSans-30" x="63.623047"/>
      </g>
     </g>
    </g>
    <g id="ytick_4">
     <g id="line2d_6">
      <path d="M 42.11149 121.719722 
L 385.171875 121.719722 
" clip-path="url(#p5af8156e50)" style="fill: none; stroke: #ffffff; stroke-linecap: round"/>
     </g>
     <g id="text_6">
      <!-- 15 -->
      <g style="fill: #262626" transform="translate(18.61399 125.898863)scale(0.11 -0.11)">
       <use xlink:href="#DejaVuSans-31"/>
       <use xlink:href="#DejaVuSans-35" x="63.623047"/>
      </g>
     </g>
    </g>
    <g id="ytick_5">
     <g id="line2d_7">
      <path d="M 42.11149 97.31422 
L 385.171875 97.31422 
" clip-path="url(#p5af8156e50)" style="fill: none; stroke: #ffffff; stroke-linecap: round"/>
     </g>
     <g id="text_7">
      <!-- 20 -->
      <g style="fill: #262626" transform="translate(18.61399 101.49336)scale(0.11 -0.11)">
       <defs>
        <path id="DejaVuSans-32" d="M 1228 531 
L 3431 531 
L 3431 0 
L 469 0 
L 469 531 
Q 828 903 1448 1529 
Q 2069 2156 2228 2338 
Q 2531 2678 2651 2914 
Q 2772 3150 2772 3378 
Q 2772 3750 2511 3984 
Q 2250 4219 1831 4219 
Q 1534 4219 1204 4116 
Q 875 4013 500 3803 
L 500 4441 
Q 881 4594 1212 4672 
Q 1544 4750 1819 4750 
Q 2544 4750 2975 4387 
Q 3406 4025 3406 3419 
Q 3406 3131 3298 2873 
Q 3191 2616 2906 2266 
Q 2828 2175 2409 1742 
Q 1991 1309 1228 531 
z
" transform="scale(0.015625)"/>
       </defs>
       <use xlink:href="#DejaVuSans-32"/>
       <use xlink:href="#DejaVuSans-30" x="63.623047"/>
      </g>
     </g>
    </g>
    <g id="ytick_6">
     <g id="line2d_8">
      <path d="M 42.11149 72.908718 
L 385.171875 72.908718 
" clip-path="url(#p5af8156e50)" style="fill: none; stroke: #ffffff; stroke-linecap: round"/>
     </g>
     <g id="text_8">
      <!-- 25 -->
      <g style="fill: #262626" transform="translate(18.61399 77.087858)scale(0.11 -0.11)">
       <use xlink:href="#DejaVuSans-32"/>
       <use xlink:href="#DejaVuSans-35" x="63.623047"/>
      </g>
     </g>
    </g>
    <g id="ytick_7">
     <g id="line2d_9">
      <path d="M 42.11149 48.503215 
L 385.171875 48.503215 
" clip-path="url(#p5af8156e50)" style="fill: none; stroke: #ffffff; stroke-linecap: round"/>
     </g>
     <g id="text_9">
      <!-- 30 -->
      <g style="fill: #262626" transform="translate(18.61399 52.682356)scale(0.11 -0.11)">
       <defs>
        <path id="DejaVuSans-33" d="M 2597 2516 
Q 3050 2419 3304 2112 
Q 3559 1806 3559 1356 
Q 3559 666 3084 287 
Q 2609 -91 1734 -91 
Q 1441 -91 1130 -33 
Q 819 25 488 141 
L 488 750 
Q 750 597 1062 519 
Q 1375 441 1716 441 
Q 2309 441 2620 675 
Q 2931 909 2931 1356 
Q 2931 1769 2642 2001 
Q 2353 2234 1838 2234 
L 1294 2234 
L 1294 2753 
L 1863 2753 
Q 2328 2753 2575 2939 
Q 2822 3125 2822 3475 
Q 2822 3834 2567 4026 
Q 2313 4219 1838 4219 
Q 1578 4219 1281 4162 
Q 984 4106 628 3988 
L 628 4550 
Q 988 4650 1302 4700 
Q 1616 4750 1894 4750 
Q 2613 4750 3031 4423 
Q 3450 4097 3450 3541 
Q 3450 3153 3228 2886 
Q 3006 2619 2597 2516 
z
" transform="scale(0.015625)"/>
       </defs>
       <use xlink:href="#DejaVuSans-33"/>
       <use xlink:href="#DejaVuSans-30" x="63.623047"/>
      </g>
     </g>
    </g>
    <g id="ytick_8">
     <g id="line2d_10">
      <path d="M 42.11149 24.097713 
L 385.171875 24.097713 
" clip-path="url(#p5af8156e50)" style="fill: none; stroke: #ffffff; stroke-linecap: round"/>
     </g>
     <g id="text_10">
      <!-- 35 -->
      <g style="fill: #262626" transform="translate(18.61399 28.276854)scale(0.11 -0.11)">
       <use xlink:href="#DejaVuSans-33"/>
       <use xlink:href="#DejaVuSans-35" x="63.623047"/>
      </g>
     </g>
    </g>
    <g id="text_11">
     <!-- training time (hours) -->
     <g style="fill: #262626" transform="translate(12.118365 168.690109)rotate(-90)scale(0.12 -0.12)">
      <defs>
       <path id="DejaVuSans-61" d="M 2194 1759 
Q 1497 1759 1228 1600 
Q 959 1441 959 1056 
Q 959 750 1161 570 
Q 1363 391 1709 391 
Q 2188 391 2477 730 
Q 2766 1069 2766 1631 
L 2766 1759 
L 2194 1759 
z
M 3341 1997 
L 3341 0 
L 2766 0 
L 2766 531 
Q 2569 213 2275 61 
Q 1981 -91 1556 -91 
Q 1019 -91 701 211 
Q 384 513 384 1019 
Q 384 1609 779 1909 
Q 1175 2209 1959 2209 
L 2766 2209 
L 2766 2266 
Q 2766 2663 2505 2880 
Q 2244 3097 1772 3097 
Q 1472 3097 1187 3025 
Q 903 2953 641 2809 
L 641 3341 
Q 956 3463 1253 3523 
Q 1550 3584 1831 3584 
Q 2591 3584 2966 3190 
Q 3341 2797 3341 1997 
z
" transform="scale(0.015625)"/>
       <path id="DejaVuSans-69" d="M 603 3500 
L 1178 3500 
L 1178 0 
L 603 0 
L 603 3500 
z
M 603 4863 
L 1178 4863 
L 1178 4134 
L 603 4134 
L 603 4863 
z
" transform="scale(0.015625)"/>
       <path id="DejaVuSans-67" d="M 2906 1791 
Q 2906 2416 2648 2759 
Q 2391 3103 1925 3103 
Q 1463 3103 1205 2759 
Q 947 2416 947 1791 
Q 947 1169 1205 825 
Q 1463 481 1925 481 
Q 2391 481 2648 825 
Q 2906 1169 2906 1791 
z
M 3481 434 
Q 3481 -459 3084 -895 
Q 2688 -1331 1869 -1331 
Q 1566 -1331 1297 -1286 
Q 1028 -1241 775 -1147 
L 775 -588 
Q 1028 -725 1275 -790 
Q 1522 -856 1778 -856 
Q 2344 -856 2625 -561 
Q 2906 -266 2906 331 
L 2906 616 
Q 2728 306 2450 153 
Q 2172 0 1784 0 
Q 1141 0 747 490 
Q 353 981 353 1791 
Q 353 2603 747 3093 
Q 1141 3584 1784 3584 
Q 2172 3584 2450 3431 
Q 2728 3278 2906 2969 
L 2906 3500 
L 3481 3500 
L 3481 434 
z
" transform="scale(0.015625)"/>
       <path id="DejaVuSans-6d" d="M 3328 2828 
Q 3544 3216 3844 3400 
Q 4144 3584 4550 3584 
Q 5097 3584 5394 3201 
Q 5691 2819 5691 2113 
L 5691 0 
L 5113 0 
L 5113 2094 
Q 5113 2597 4934 2840 
Q 4756 3084 4391 3084 
Q 3944 3084 3684 2787 
Q 3425 2491 3425 1978 
L 3425 0 
L 2847 0 
L 2847 2094 
Q 2847 2600 2669 2842 
Q 2491 3084 2119 3084 
Q 1678 3084 1418 2786 
Q 1159 2488 1159 1978 
L 1159 0 
L 581 0 
L 581 3500 
L 1159 3500 
L 1159 2956 
Q 1356 3278 1631 3431 
Q 1906 3584 2284 3584 
Q 2666 3584 2933 3390 
Q 3200 3197 3328 2828 
z
" transform="scale(0.015625)"/>
       <path id="DejaVuSans-68" d="M 3513 2113 
L 3513 0 
L 2938 0 
L 2938 2094 
Q 2938 2591 2744 2837 
Q 2550 3084 2163 3084 
Q 1697 3084 1428 2787 
Q 1159 2491 1159 1978 
L 1159 0 
L 581 0 
L 581 4863 
L 1159 4863 
L 1159 2956 
Q 1366 3272 1645 3428 
Q 1925 3584 2291 3584 
Q 2894 3584 3203 3211 
Q 3513 2838 3513 2113 
z
" transform="scale(0.015625)"/>
      </defs>
      <use xlink:href="#DejaVuSans-74"/>
      <use xlink:href="#DejaVuSans-72" x="39.208984"/>
      <use xlink:href="#DejaVuSans-61" x="80.322266"/>
      <use xlink:href="#DejaVuSans-69" x="141.601562"/>
      <use xlink:href="#DejaVuSans-6e" x="169.384766"/>
      <use xlink:href="#DejaVuSans-69" x="232.763672"/>
      <use xlink:href="#DejaVuSans-6e" x="260.546875"/>
      <use xlink:href="#DejaVuSans-67" x="323.925781"/>
      <use xlink:href="#DejaVuSans-20" x="387.402344"/>
      <use xlink:href="#DejaVuSans-74" x="419.189453"/>
      <use xlink:href="#DejaVuSans-69" x="458.398438"/>
      <use xlink:href="#DejaVuSans-6d" x="486.181641"/>
      <use xlink:href="#DejaVuSans-65" x="583.59375"/>
      <use xlink:href="#DejaVuSans-20" x="645.117188"/>
      <use xlink:href="#DejaVuSans-28" x="676.904297"/>
      <use xlink:href="#DejaVuSans-68" x="715.917969"/>
      <use xlink:href="#DejaVuSans-6f" x="779.296875"/>
      <use xlink:href="#DejaVuSans-75" x="840.478516"/>
      <use xlink:href="#DejaVuSans-72" x="903.857422"/>
      <use xlink:href="#DejaVuSans-73" x="944.970703"/>
      <use xlink:href="#DejaVuSans-29" x="997.070312"/>
     </g>
    </g>
   </g>
   <g id="patch_3">
    <path d="M 84.994038 194.936229 
L 113.582404 194.936229 
L 113.582404 185.906193 
L 84.994038 185.906193 
z
" clip-path="url(#p5af8156e50)" style="fill: #ffcd17; stroke: #ffffff; stroke-linejoin: miter"/>
   </g>
   <g id="patch_4">
    <path d="M 256.524231 194.936229 
L 285.112596 194.936229 
L 285.112596 171.873029 
L 256.524231 171.873029 
z
" clip-path="url(#p5af8156e50)" style="fill: #ffcd17; stroke: #ffffff; stroke-linejoin: miter"/>
   </g>
   <g id="patch_5">
    <path d="M 113.582404 194.936229 
L 142.170769 194.936229 
L 142.170769 166.747874 
L 113.582404 166.747874 
z
" clip-path="url(#p5af8156e50)" style="fill: #aaaaaa; stroke: #ffffff; stroke-linejoin: miter"/>
   </g>
   <g id="patch_6">
    <path d="M 285.112596 194.936229 
L 313.700961 194.936229 
L 313.700961 32.883694 
L 285.112596 32.883694 
z
" clip-path="url(#p5af8156e50)" style="fill: #aaaaaa; stroke: #ffffff; stroke-linejoin: miter"/>
   </g>
   <g id="patch_7">
    <path d="M 142.170769 194.936229 
L 170.759134 194.936229 
L 170.759134 167.602066 
L 142.170769 167.602066 
z
" clip-path="url(#p5af8156e50)" style="fill: #777777; stroke: #ffffff; stroke-linejoin: miter"/>
   </g>
   <g id="patch_8">
    <path d="M 313.700961 194.936229 
L 342.289327 194.936229 
L 342.289327 26.538263 
L 313.700961 26.538263 
z
" clip-path="url(#p5af8156e50)" style="fill: #777777; stroke: #ffffff; stroke-linejoin: miter"/>
   </g>
   <g id="patch_9">
    <path d="M 42.11149 194.936229 
L 42.11149 18.118365 
" style="fill: none; stroke: #ffffff; stroke-width: 1.25; stroke-linejoin: miter; stroke-linecap: square"/>
   </g>
   <g id="patch_10">
    <path d="M 385.171875 194.936229 
L 385.171875 18.118365 
" style="fill: none; stroke: #ffffff; stroke-width: 1.25; stroke-linejoin: miter; stroke-linecap: square"/>
   </g>
   <g id="patch_11">
    <path d="M 42.11149 194.936229 
L 385.171875 194.936229 
" style="fill: none; stroke: #ffffff; stroke-width: 1.25; stroke-linejoin: miter; stroke-linecap: square"/>
   </g>
   <g id="patch_12">
    <path d="M 42.11149 18.118365 
L 385.171875 18.118365 
" style="fill: none; stroke: #ffffff; stroke-width: 1.25; stroke-linejoin: miter; stroke-linecap: square"/>
   </g>
   <g id="text_12">
    <!-- (90 Epoch) ImageNet Training -->
    <g style="fill: #262626" transform="translate(124.23512 12.118365)scale(0.12 -0.12)">
     <defs>
      <path id="DejaVuSans-39" d="M 703 97 
L 703 672 
Q 941 559 1184 500 
Q 1428 441 1663 441 
Q 2288 441 2617 861 
Q 2947 1281 2994 2138 
Q 2813 1869 2534 1725 
Q 2256 1581 1919 1581 
Q 1219 1581 811 2004 
Q 403 2428 403 3163 
Q 403 3881 828 4315 
Q 1253 4750 1959 4750 
Q 2769 4750 3195 4129 
Q 3622 3509 3622 2328 
Q 3622 1225 3098 567 
Q 2575 -91 1691 -91 
Q 1453 -91 1209 -44 
Q 966 3 703 97 
z
M 1959 2075 
Q 2384 2075 2632 2365 
Q 2881 2656 2881 3163 
Q 2881 3666 2632 3958 
Q 2384 4250 1959 4250 
Q 1534 4250 1286 3958 
Q 1038 3666 1038 3163 
Q 1038 2656 1286 2365 
Q 1534 2075 1959 2075 
z
" transform="scale(0.015625)"/>
      <path id="DejaVuSans-45" d="M 628 4666 
L 3578 4666 
L 3578 4134 
L 1259 4134 
L 1259 2753 
L 3481 2753 
L 3481 2222 
L 1259 2222 
L 1259 531 
L 3634 531 
L 3634 0 
L 628 0 
L 628 4666 
z
" transform="scale(0.015625)"/>
      <path id="DejaVuSans-70" d="M 1159 525 
L 1159 -1331 
L 581 -1331 
L 581 3500 
L 1159 3500 
L 1159 2969 
Q 1341 3281 1617 3432 
Q 1894 3584 2278 3584 
Q 2916 3584 3314 3078 
Q 3713 2572 3713 1747 
Q 3713 922 3314 415 
Q 2916 -91 2278 -91 
Q 1894 -91 1617 61 
Q 1341 213 1159 525 
z
M 3116 1747 
Q 3116 2381 2855 2742 
Q 2594 3103 2138 3103 
Q 1681 3103 1420 2742 
Q 1159 2381 1159 1747 
Q 1159 1113 1420 752 
Q 1681 391 2138 391 
Q 2594 391 2855 752 
Q 3116 1113 3116 1747 
z
" transform="scale(0.015625)"/>
      <path id="DejaVuSans-49" d="M 628 4666 
L 1259 4666 
L 1259 0 
L 628 0 
L 628 4666 
z
" transform="scale(0.015625)"/>
      <path id="DejaVuSans-54" d="M -19 4666 
L 3928 4666 
L 3928 4134 
L 2272 4134 
L 2272 0 
L 1638 0 
L 1638 4134 
L -19 4134 
L -19 4666 
z
" transform="scale(0.015625)"/>
     </defs>
     <use xlink:href="#DejaVuSans-28"/>
     <use xlink:href="#DejaVuSans-39" x="39.013672"/>
     <use xlink:href="#DejaVuSans-30" x="102.636719"/>
     <use xlink:href="#DejaVuSans-20" x="166.259766"/>
     <use xlink:href="#DejaVuSans-45" x="198.046875"/>
     <use xlink:href="#DejaVuSans-70" x="261.230469"/>
     <use xlink:href="#DejaVuSans-6f" x="324.707031"/>
     <use xlink:href="#DejaVuSans-63" x="385.888672"/>
     <use xlink:href="#DejaVuSans-68" x="440.869141"/>
     <use xlink:href="#DejaVuSans-29" x="504.248047"/>
     <use xlink:href="#DejaVuSans-20" x="543.261719"/>
     <use xlink:href="#DejaVuSans-49" x="575.048828"/>
     <use xlink:href="#DejaVuSans-6d" x="604.541016"/>
     <use xlink:href="#DejaVuSans-61" x="701.953125"/>
     <use xlink:href="#DejaVuSans-67" x="763.232422"/>
     <use xlink:href="#DejaVuSans-65" x="826.708984"/>
     <use xlink:href="#DejaVuSans-4e" x="888.232422"/>
     <use xlink:href="#DejaVuSans-65" x="963.037109"/>
     <use xlink:href="#DejaVuSans-74" x="1024.560547"/>
     <use xlink:href="#DejaVuSans-20" x="1063.769531"/>
     <use xlink:href="#DejaVuSans-54" x="1095.556641"/>
     <use xlink:href="#DejaVuSans-72" x="1141.890625"/>
     <use xlink:href="#DejaVuSans-61" x="1183.003906"/>
     <use xlink:href="#DejaVuSans-69" x="1244.283203"/>
     <use xlink:href="#DejaVuSans-6e" x="1272.066406"/>
     <use xlink:href="#DejaVuSans-69" x="1335.445312"/>
     <use xlink:href="#DejaVuSans-6e" x="1363.228516"/>
     <use xlink:href="#DejaVuSans-67" x="1426.607422"/>
    </g>
   </g>
   <g id="legend_1">
    <g id="patch_13">
     <path d="M 49.81149 75.356178 
L 181.957584 75.356178 
Q 184.157584 75.356178 184.157584 73.156178 
L 184.157584 25.818365 
Q 184.157584 23.618365 181.957584 23.618365 
L 49.81149 23.618365 
Q 47.61149 23.618365 47.61149 25.818365 
L 47.61149 73.156178 
Q 47.61149 75.356178 49.81149 75.356178 
z
" style="fill: #eaeaf2; opacity: 0.8; stroke: #cccccc; stroke-linejoin: miter"/>
    </g>
    <g id="patch_14">
     <path d="M 52.01149 36.376646 
L 74.01149 36.376646 
L 74.01149 28.676646 
L 52.01149 28.676646 
z
" style="fill: #ffcd17; stroke: #ffffff; stroke-linejoin: miter"/>
    </g>
    <g id="text_13">
     <!-- FFCV -->
     <g style="fill: #262626" transform="translate(82.81149 36.376646)scale(0.11 -0.11)">
      <defs>
       <path id="DejaVuSans-46" d="M 628 4666 
L 3309 4666 
L 3309 4134 
L 1259 4134 
L 1259 2759 
L 3109 2759 
L 3109 2228 
L 1259 2228 
L 1259 0 
L 628 0 
L 628 4666 
z
" transform="scale(0.015625)"/>
       <path id="DejaVuSans-56" d="M 1831 0 
L 50 4666 
L 709 4666 
L 2188 738 
L 3669 4666 
L 4325 4666 
L 2547 0 
L 1831 0 
z
" transform="scale(0.015625)"/>
      </defs>
      <use xlink:href="#DejaVuSans-46"/>
      <use xlink:href="#DejaVuSans-46" x="57.519531"/>
      <use xlink:href="#DejaVuSans-43" x="115.039062"/>
      <use xlink:href="#DejaVuSans-56" x="184.863281"/>
     </g>
    </g>
    <g id="patch_15">
     <path d="M 52.01149 52.522584 
L 74.01149 52.522584 
L 74.01149 44.822584 
L 52.01149 44.822584 
z
" style="fill: #aaaaaa; stroke: #ffffff; stroke-linejoin: miter"/>
    </g>
    <g id="text_14">
     <!-- PyTorch Example -->
     <g style="fill: #262626" transform="translate(82.81149 52.522584)scale(0.11 -0.11)">
      <defs>
       <path id="DejaVuSans-79" d="M 2059 -325 
Q 1816 -950 1584 -1140 
Q 1353 -1331 966 -1331 
L 506 -1331 
L 506 -850 
L 844 -850 
Q 1081 -850 1212 -737 
Q 1344 -625 1503 -206 
L 1606 56 
L 191 3500 
L 800 3500 
L 1894 763 
L 2988 3500 
L 3597 3500 
L 2059 -325 
z
" transform="scale(0.015625)"/>
       <path id="DejaVuSans-6c" d="M 603 4863 
L 1178 4863 
L 1178 0 
L 603 0 
L 603 4863 
z
" transform="scale(0.015625)"/>
      </defs>
      <use xlink:href="#DejaVuSans-50"/>
      <use xlink:href="#DejaVuSans-79" x="60.302734"/>
      <use xlink:href="#DejaVuSans-54" x="119.482422"/>
      <use xlink:href="#DejaVuSans-6f" x="163.566406"/>
      <use xlink:href="#DejaVuSans-72" x="224.748047"/>
      <use xlink:href="#DejaVuSans-63" x="263.611328"/>
      <use xlink:href="#DejaVuSans-68" x="318.591797"/>
      <use xlink:href="#DejaVuSans-20" x="381.970703"/>
      <use xlink:href="#DejaVuSans-45" x="413.757812"/>
      <use xlink:href="#DejaVuSans-78" x="476.941406"/>
      <use xlink:href="#DejaVuSans-61" x="536.121094"/>
      <use xlink:href="#DejaVuSans-6d" x="597.400391"/>
      <use xlink:href="#DejaVuSans-70" x="694.8125"/>
      <use xlink:href="#DejaVuSans-6c" x="758.289062"/>
      <use xlink:href="#DejaVuSans-65" x="786.072266"/>
     </g>
    </g>
    <g id="patch_16">
     <path d="M 52.01149 68.668521 
L 74.01149 68.668521 
L 74.01149 60.968521 
L 52.01149 60.968521 
z
" style="fill: #777777; stroke: #ffffff; stroke-linejoin: miter"/>
    </g>
    <g id="text_15">
     <!-- PyTorch Lightning -->
     <g style="fill: #262626" transform="translate(82.81149 68.668521)scale(0.11 -0.11)">
      <defs>
       <path id="DejaVuSans-4c" d="M 628 4666 
L 1259 4666 
L 1259 531 
L 3531 531 
L 3531 0 
L 628 0 
L 628 4666 
z
" transform="scale(0.015625)"/>
      </defs>
      <use xlink:href="#DejaVuSans-50"/>
      <use xlink:href="#DejaVuSans-79" x="60.302734"/>
      <use xlink:href="#DejaVuSans-54" x="119.482422"/>
      <use xlink:href="#DejaVuSans-6f" x="163.566406"/>
      <use xlink:href="#DejaVuSans-72" x="224.748047"/>
      <use xlink:href="#DejaVuSans-63" x="263.611328"/>
      <use xlink:href="#DejaVuSans-68" x="318.591797"/>
      <use xlink:href="#DejaVuSans-20" x="381.970703"/>
      <use xlink:href="#DejaVuSans-4c" x="413.757812"/>
      <use xlink:href="#DejaVuSans-69" x="469.470703"/>
      <use xlink:href="#DejaVuSans-67" x="497.253906"/>
      <use xlink:href="#DejaVuSans-68" x="560.730469"/>
      <use xlink:href="#DejaVuSans-74" x="624.109375"/>
      <use xlink:href="#DejaVuSans-6e" x="663.318359"/>
      <use xlink:href="#DejaVuSans-69" x="726.697266"/>
      <use xlink:href="#DejaVuSans-6e" x="754.480469"/>
      <use xlink:href="#DejaVuSans-67" x="817.859375"/>
     </g>
    </g>
   </g>
  </g>
  <g id="axes_2">
   <g id="patch_17">
    <path d="M 432.064375 194.936229 
L 775.12476 194.936229 
L 775.12476 18.118365 
L 432.064375 18.118365 
z
" style="fill: #eaeaf2"/>
   </g>
   <g id="matplotlib.axis_3">
    <g id="xtick_3">
     <g id="line2d_11">
      <path d="M 517.829471 194.936229 
L 517.829471 18.118365 
" clip-path="url(#p1e484232bf)" style="fill: none; stroke: #ffffff; stroke-linecap: round"/>
     </g>
     <g id="text_16">
      <!-- Dataset in -->
      <g style="fill: #262626" transform="translate(489.530253 212.79451)scale(0.11 -0.11)">
       <defs>
        <path id="DejaVuSans-44" d="M 1259 4147 
L 1259 519 
L 2022 519 
Q 2988 519 3436 956 
Q 3884 1394 3884 2338 
Q 3884 3275 3436 3711 
Q 2988 4147 2022 4147 
L 1259 4147 
z
M 628 4666 
L 1925 4666 
Q 3281 4666 3915 4102 
Q 4550 3538 4550 2338 
Q 4550 1131 3912 565 
Q 3275 0 1925 0 
L 628 0 
L 628 4666 
z
" transform="scale(0.015625)"/>
       </defs>
       <use xlink:href="#DejaVuSans-44"/>
       <use xlink:href="#DejaVuSans-61" x="77.001953"/>
       <use xlink:href="#DejaVuSans-74" x="138.28125"/>
       <use xlink:href="#DejaVuSans-61" x="177.490234"/>
       <use xlink:href="#DejaVuSans-73" x="238.769531"/>
       <use xlink:href="#DejaVuSans-65" x="290.869141"/>
       <use xlink:href="#DejaVuSans-74" x="352.392578"/>
       <use xlink:href="#DejaVuSans-20" x="391.601562"/>
       <use xlink:href="#DejaVuSans-69" x="423.388672"/>
       <use xlink:href="#DejaVuSans-6e" x="451.171875"/>
      </g>
      <!-- memory -->
      <g style="fill: #262626" transform="translate(494.848924 225.112104)scale(0.11 -0.11)">
       <use xlink:href="#DejaVuSans-6d"/>
       <use xlink:href="#DejaVuSans-65" x="97.412109"/>
       <use xlink:href="#DejaVuSans-6d" x="158.935547"/>
       <use xlink:href="#DejaVuSans-6f" x="256.347656"/>
       <use xlink:href="#DejaVuSans-72" x="317.529297"/>
       <use xlink:href="#DejaVuSans-79" x="358.642578"/>
      </g>
     </g>
    </g>
    <g id="xtick_4">
     <g id="line2d_12">
      <path d="M 689.359664 194.936229 
L 689.359664 18.118365 
" clip-path="url(#p1e484232bf)" style="fill: none; stroke: #ffffff; stroke-linecap: round"/>
     </g>
     <g id="text_17">
      <!-- Dataset on -->
      <g style="fill: #262626" transform="translate(659.223101 212.79451)scale(0.11 -0.11)">
       <use xlink:href="#DejaVuSans-44"/>
       <use xlink:href="#DejaVuSans-61" x="77.001953"/>
       <use xlink:href="#DejaVuSans-74" x="138.28125"/>
       <use xlink:href="#DejaVuSans-61" x="177.490234"/>
       <use xlink:href="#DejaVuSans-73" x="238.769531"/>
       <use xlink:href="#DejaVuSans-65" x="290.869141"/>
       <use xlink:href="#DejaVuSans-74" x="352.392578"/>
       <use xlink:href="#DejaVuSans-20" x="391.601562"/>
       <use xlink:href="#DejaVuSans-6f" x="423.388672"/>
       <use xlink:href="#DejaVuSans-6e" x="484.570312"/>
      </g>
      <!-- AWS EBS -->
      <g style="fill: #262626" transform="translate(664.577867 225.112104)scale(0.11 -0.11)">
       <defs>
        <path id="DejaVuSans-57" d="M 213 4666 
L 850 4666 
L 1831 722 
L 2809 4666 
L 3519 4666 
L 4500 722 
L 5478 4666 
L 6119 4666 
L 4947 0 
L 4153 0 
L 3169 4050 
L 2175 0 
L 1381 0 
L 213 4666 
z
" transform="scale(0.015625)"/>
        <path id="DejaVuSans-53" d="M 3425 4513 
L 3425 3897 
Q 3066 4069 2747 4153 
Q 2428 4238 2131 4238 
Q 1616 4238 1336 4038 
Q 1056 3838 1056 3469 
Q 1056 3159 1242 3001 
Q 1428 2844 1947 2747 
L 2328 2669 
Q 3034 2534 3370 2195 
Q 3706 1856 3706 1288 
Q 3706 609 3251 259 
Q 2797 -91 1919 -91 
Q 1588 -91 1214 -16 
Q 841 59 441 206 
L 441 856 
Q 825 641 1194 531 
Q 1563 422 1919 422 
Q 2459 422 2753 634 
Q 3047 847 3047 1241 
Q 3047 1584 2836 1778 
Q 2625 1972 2144 2069 
L 1759 2144 
Q 1053 2284 737 2584 
Q 422 2884 422 3419 
Q 422 4038 858 4394 
Q 1294 4750 2059 4750 
Q 2388 4750 2728 4690 
Q 3069 4631 3425 4513 
z
" transform="scale(0.015625)"/>
        <path id="DejaVuSans-42" d="M 1259 2228 
L 1259 519 
L 2272 519 
Q 2781 519 3026 730 
Q 3272 941 3272 1375 
Q 3272 1813 3026 2020 
Q 2781 2228 2272 2228 
L 1259 2228 
z
M 1259 4147 
L 1259 2741 
L 2194 2741 
Q 2656 2741 2882 2914 
Q 3109 3088 3109 3444 
Q 3109 3797 2882 3972 
Q 2656 4147 2194 4147 
L 1259 4147 
z
M 628 4666 
L 2241 4666 
Q 2963 4666 3353 4366 
Q 3744 4066 3744 3513 
Q 3744 3084 3544 2831 
Q 3344 2578 2956 2516 
Q 3422 2416 3680 2098 
Q 3938 1781 3938 1306 
Q 3938 681 3513 340 
Q 3088 0 2303 0 
L 628 0 
L 628 4666 
z
" transform="scale(0.015625)"/>
       </defs>
       <use xlink:href="#DejaVuSans-41"/>
       <use xlink:href="#DejaVuSans-57" x="62.908203"/>
       <use xlink:href="#DejaVuSans-53" x="161.785156"/>
       <use xlink:href="#DejaVuSans-20" x="225.261719"/>
       <use xlink:href="#DejaVuSans-45" x="257.048828"/>
       <use xlink:href="#DejaVuSans-42" x="320.232422"/>
       <use xlink:href="#DejaVuSans-53" x="387.085938"/>
      </g>
     </g>
    </g>
   </g>
   <g id="matplotlib.axis_4">
    <g id="ytick_9">
     <g id="line2d_13">
      <path d="M 432.064375 194.936229 
L 775.12476 194.936229 
" clip-path="url(#p1e484232bf)" style="fill: none; stroke: #ffffff; stroke-linecap: round"/>
     </g>
     <g id="text_18">
      <!-- 0 -->
      <g style="fill: #262626" transform="translate(415.565625 199.115369)scale(0.11 -0.11)">
       <use xlink:href="#DejaVuSans-30"/>
      </g>
     </g>
    </g>
    <g id="ytick_10">
     <g id="line2d_14">
      <path d="M 432.064375 161.534979 
L 775.12476 161.534979 
" clip-path="url(#p1e484232bf)" style="fill: none; stroke: #ffffff; stroke-linecap: round"/>
     </g>
     <g id="text_19">
      <!-- 2 -->
      <g style="fill: #262626" transform="translate(415.565625 165.71412)scale(0.11 -0.11)">
       <use xlink:href="#DejaVuSans-32"/>
      </g>
     </g>
    </g>
    <g id="ytick_11">
     <g id="line2d_15">
      <path d="M 432.064375 128.13373 
L 775.12476 128.13373 
" clip-path="url(#p1e484232bf)" style="fill: none; stroke: #ffffff; stroke-linecap: round"/>
     </g>
     <g id="text_20">
      <!-- 4 -->
      <g style="fill: #262626" transform="translate(415.565625 132.312871)scale(0.11 -0.11)">
       <defs>
        <path id="DejaVuSans-34" d="M 2419 4116 
L 825 1625 
L 2419 1625 
L 2419 4116 
z
M 2253 4666 
L 3047 4666 
L 3047 1625 
L 3713 1625 
L 3713 1100 
L 3047 1100 
L 3047 0 
L 2419 0 
L 2419 1100 
L 313 1100 
L 313 1709 
L 2253 4666 
z
" transform="scale(0.015625)"/>
       </defs>
       <use xlink:href="#DejaVuSans-34"/>
      </g>
     </g>
    </g>
    <g id="ytick_12">
     <g id="line2d_16">
      <path d="M 432.064375 94.732481 
L 775.12476 94.732481 
" clip-path="url(#p1e484232bf)" style="fill: none; stroke: #ffffff; stroke-linecap: round"/>
     </g>
     <g id="text_21">
      <!-- 6 -->
      <g style="fill: #262626" transform="translate(415.565625 98.911621)scale(0.11 -0.11)">
       <defs>
        <path id="DejaVuSans-36" d="M 2113 2584 
Q 1688 2584 1439 2293 
Q 1191 2003 1191 1497 
Q 1191 994 1439 701 
Q 1688 409 2113 409 
Q 2538 409 2786 701 
Q 3034 994 3034 1497 
Q 3034 2003 2786 2293 
Q 2538 2584 2113 2584 
z
M 3366 4563 
L 3366 3988 
Q 3128 4100 2886 4159 
Q 2644 4219 2406 4219 
Q 1781 4219 1451 3797 
Q 1122 3375 1075 2522 
Q 1259 2794 1537 2939 
Q 1816 3084 2150 3084 
Q 2853 3084 3261 2657 
Q 3669 2231 3669 1497 
Q 3669 778 3244 343 
Q 2819 -91 2113 -91 
Q 1303 -91 875 529 
Q 447 1150 447 2328 
Q 447 3434 972 4092 
Q 1497 4750 2381 4750 
Q 2619 4750 2861 4703 
Q 3103 4656 3366 4563 
z
" transform="scale(0.015625)"/>
       </defs>
       <use xlink:href="#DejaVuSans-36"/>
      </g>
     </g>
    </g>
    <g id="ytick_13">
     <g id="line2d_17">
      <path d="M 432.064375 61.331231 
L 775.12476 61.331231 
" clip-path="url(#p1e484232bf)" style="fill: none; stroke: #ffffff; stroke-linecap: round"/>
     </g>
     <g id="text_22">
      <!-- 8 -->
      <g style="fill: #262626" transform="translate(415.565625 65.510372)scale(0.11 -0.11)">
       <use xlink:href="#DejaVuSans-38"/>
      </g>
     </g>
    </g>
    <g id="ytick_14">
     <g id="line2d_18">
      <path d="M 432.064375 27.929982 
L 775.12476 27.929982 
" clip-path="url(#p1e484232bf)" style="fill: none; stroke: #ffffff; stroke-linecap: round"/>
     </g>
     <g id="text_23">
      <!-- 10 -->
      <g style="fill: #262626" transform="translate(408.566875 32.109123)scale(0.11 -0.11)">
       <use xlink:href="#DejaVuSans-31"/>
       <use xlink:href="#DejaVuSans-30" x="63.623047"/>
      </g>
     </g>
    </g>
    <g id="text_24">
     <!-- data loading time (minutes) -->
     <g style="fill: #262626" transform="translate(402.07125 190.388547)rotate(-90)scale(0.12 -0.12)">
      <defs>
       <path id="DejaVuSans-64" d="M 2906 2969 
L 2906 4863 
L 3481 4863 
L 3481 0 
L 2906 0 
L 2906 525 
Q 2725 213 2448 61 
Q 2172 -91 1784 -91 
Q 1150 -91 751 415 
Q 353 922 353 1747 
Q 353 2572 751 3078 
Q 1150 3584 1784 3584 
Q 2172 3584 2448 3432 
Q 2725 3281 2906 2969 
z
M 947 1747 
Q 947 1113 1208 752 
Q 1469 391 1925 391 
Q 2381 391 2643 752 
Q 2906 1113 2906 1747 
Q 2906 2381 2643 2742 
Q 2381 3103 1925 3103 
Q 1469 3103 1208 2742 
Q 947 2381 947 1747 
z
" transform="scale(0.015625)"/>
      </defs>
      <use xlink:href="#DejaVuSans-64"/>
      <use xlink:href="#DejaVuSans-61" x="63.476562"/>
      <use xlink:href="#DejaVuSans-74" x="124.755859"/>
      <use xlink:href="#DejaVuSans-61" x="163.964844"/>
      <use xlink:href="#DejaVuSans-20" x="225.244141"/>
      <use xlink:href="#DejaVuSans-6c" x="257.03125"/>
      <use xlink:href="#DejaVuSans-6f" x="284.814453"/>
      <use xlink:href="#DejaVuSans-61" x="345.996094"/>
      <use xlink:href="#DejaVuSans-64" x="407.275391"/>
      <use xlink:href="#DejaVuSans-69" x="470.751953"/>
      <use xlink:href="#DejaVuSans-6e" x="498.535156"/>
      <use xlink:href="#DejaVuSans-67" x="561.914062"/>
      <use xlink:href="#DejaVuSans-20" x="625.390625"/>
      <use xlink:href="#DejaVuSans-74" x="657.177734"/>
      <use xlink:href="#DejaVuSans-69" x="696.386719"/>
      <use xlink:href="#DejaVuSans-6d" x="724.169922"/>
      <use xlink:href="#DejaVuSans-65" x="821.582031"/>
      <use xlink:href="#DejaVuSans-20" x="883.105469"/>
      <use xlink:href="#DejaVuSans-28" x="914.892578"/>
      <use xlink:href="#DejaVuSans-6d" x="953.90625"/>
      <use xlink:href="#DejaVuSans-69" x="1051.318359"/>
      <use xlink:href="#DejaVuSans-6e" x="1079.101562"/>
      <use xlink:href="#DejaVuSans-75" x="1142.480469"/>
      <use xlink:href="#DejaVuSans-74" x="1205.859375"/>
      <use xlink:href="#DejaVuSans-65" x="1245.068359"/>
      <use xlink:href="#DejaVuSans-73" x="1306.591797"/>
      <use xlink:href="#DejaVuSans-29" x="1358.691406"/>
     </g>
    </g>
   </g>
   <g id="patch_18">
    <path d="M 474.946923 194.936229 
L 496.388197 194.936229 
L 496.388197 183.53509 
L 474.946923 183.53509 
z
" clip-path="url(#p1e484232bf)" style="fill: #ffcd17; stroke: #ffffff; stroke-linejoin: miter"/>
   </g>
   <g id="patch_19">
    <path d="M 646.477116 194.936229 
L 667.91839 194.936229 
L 667.91839 173.494053 
L 646.477116 173.494053 
z
" clip-path="url(#p1e484232bf)" style="fill: #ffcd17; stroke: #ffffff; stroke-linejoin: miter"/>
   </g>
   <g id="patch_20">
    <path d="M 496.388197 194.936229 
L 517.829471 194.936229 
L 517.829471 128.690418 
L 496.388197 128.690418 
z
" clip-path="url(#p1e484232bf)" style="fill: #dddddd; stroke: #ffffff; stroke-linejoin: miter"/>
   </g>
   <g id="patch_21">
    <path d="M 667.91839 194.936229 
L 689.359664 194.936229 
L 689.359664 101.412731 
L 667.91839 101.412731 
z
" clip-path="url(#p1e484232bf)" style="fill: #dddddd; stroke: #ffffff; stroke-linejoin: miter"/>
   </g>
   <g id="patch_22">
    <path d="M 517.829471 194.936229 
L 539.270745 194.936229 
L 539.270745 101.412731 
L 517.829471 101.412731 
z
" clip-path="url(#p1e484232bf)" style="fill: #aaaaaa; stroke: #ffffff; stroke-linejoin: miter"/>
   </g>
   <g id="patch_23">
    <path d="M 689.359664 194.936229 
L 710.800938 194.936229 
L 710.800938 26.538263 
L 689.359664 26.538263 
z
" clip-path="url(#p1e484232bf)" style="fill: #aaaaaa; stroke: #ffffff; stroke-linejoin: miter"/>
   </g>
   <g id="patch_24">
    <path d="M 539.270745 194.936229 
L 560.712019 194.936229 
L 560.712019 93.062418 
L 539.270745 93.062418 
z
" clip-path="url(#p1e484232bf)" style="fill: #777777; stroke: #ffffff; stroke-linejoin: miter"/>
   </g>
   <g id="patch_25">
    <path d="M 710.800938 194.936229 
L 732.242212 194.936229 
L 732.242212 76.640137 
L 710.800938 76.640137 
z
" clip-path="url(#p1e484232bf)" style="fill: #777777; stroke: #ffffff; stroke-linejoin: miter"/>
   </g>
   <g id="patch_26">
    <path d="M 432.064375 194.936229 
L 432.064375 18.118365 
" style="fill: none; stroke: #ffffff; stroke-width: 1.25; stroke-linejoin: miter; stroke-linecap: square"/>
   </g>
   <g id="patch_27">
    <path d="M 775.12476 194.936229 
L 775.12476 18.118365 
" style="fill: none; stroke: #ffffff; stroke-width: 1.25; stroke-linejoin: miter; stroke-linecap: square"/>
   </g>
   <g id="patch_28">
    <path d="M 432.064375 194.936229 
L 775.12476 194.936229 
" style="fill: none; stroke: #ffffff; stroke-width: 1.25; stroke-linejoin: miter; stroke-linecap: square"/>
   </g>
   <g id="patch_29">
    <path d="M 432.064375 18.118365 
L 775.12476 18.118365 
" style="fill: none; stroke: #ffffff; stroke-width: 1.25; stroke-linejoin: miter; stroke-linecap: square"/>
   </g>
   <g id="text_25">
    <!-- Loading One ImageNet Epoch (96 CPU, 8 V100 GPUs) -->
    <g style="fill: #262626" transform="translate(443.169568 12.118365)scale(0.12 -0.12)">
     <defs>
      <path id="DejaVuSans-4f" d="M 2522 4238 
Q 1834 4238 1429 3725 
Q 1025 3213 1025 2328 
Q 1025 1447 1429 934 
Q 1834 422 2522 422 
Q 3209 422 3611 934 
Q 4013 1447 4013 2328 
Q 4013 3213 3611 3725 
Q 3209 4238 2522 4238 
z
M 2522 4750 
Q 3503 4750 4090 4092 
Q 4678 3434 4678 2328 
Q 4678 1225 4090 567 
Q 3503 -91 2522 -91 
Q 1538 -91 948 565 
Q 359 1222 359 2328 
Q 359 3434 948 4092 
Q 1538 4750 2522 4750 
z
" transform="scale(0.015625)"/>
      <path id="DejaVuSans-2c" d="M 750 794 
L 1409 794 
L 1409 256 
L 897 -744 
L 494 -744 
L 750 256 
L 750 794 
z
" transform="scale(0.015625)"/>
     </defs>
     <use xlink:href="#DejaVuSans-4c"/>
     <use xlink:href="#DejaVuSans-6f" x="53.962891"/>
     <use xlink:href="#DejaVuSans-61" x="115.144531"/>
     <use xlink:href="#DejaVuSans-64" x="176.423828"/>
     <use xlink:href="#DejaVuSans-69" x="239.900391"/>
     <use xlink:href="#DejaVuSans-6e" x="267.683594"/>
     <use xlink:href="#DejaVuSans-67" x="331.0625"/>
     <use xlink:href="#DejaVuSans-20" x="394.539062"/>
     <use xlink:href="#DejaVuSans-4f" x="426.326172"/>
     <use xlink:href="#DejaVuSans-6e" x="505.037109"/>
     <use xlink:href="#DejaVuSans-65" x="568.416016"/>
     <use xlink:href="#DejaVuSans-20" x="629.939453"/>
     <use xlink:href="#DejaVuSans-49" x="661.726562"/>
     <use xlink:href="#DejaVuSans-6d" x="691.21875"/>
     <use xlink:href="#DejaVuSans-61" x="788.630859"/>
     <use xlink:href="#DejaVuSans-67" x="849.910156"/>
     <use xlink:href="#DejaVuSans-65" x="913.386719"/>
     <use xlink:href="#DejaVuSans-4e" x="974.910156"/>
     <use xlink:href="#DejaVuSans-65" x="1049.714844"/>
     <use xlink:href="#DejaVuSans-74" x="1111.238281"/>
     <use xlink:href="#DejaVuSans-20" x="1150.447266"/>
     <use xlink:href="#DejaVuSans-45" x="1182.234375"/>
     <use xlink:href="#DejaVuSans-70" x="1245.417969"/>
     <use xlink:href="#DejaVuSans-6f" x="1308.894531"/>
     <use xlink:href="#DejaVuSans-63" x="1370.076172"/>
     <use xlink:href="#DejaVuSans-68" x="1425.056641"/>
     <use xlink:href="#DejaVuSans-20" x="1488.435547"/>
     <use xlink:href="#DejaVuSans-28" x="1520.222656"/>
     <use xlink:href="#DejaVuSans-39" x="1559.236328"/>
     <use xlink:href="#DejaVuSans-36" x="1622.859375"/>
     <use xlink:href="#DejaVuSans-20" x="1686.482422"/>
     <use xlink:href="#DejaVuSans-43" x="1718.269531"/>
     <use xlink:href="#DejaVuSans-50" x="1788.09375"/>
     <use xlink:href="#DejaVuSans-55" x="1848.396484"/>
     <use xlink:href="#DejaVuSans-2c" x="1921.589844"/>
     <use xlink:href="#DejaVuSans-20" x="1953.376953"/>
     <use xlink:href="#DejaVuSans-38" x="1985.164062"/>
     <use xlink:href="#DejaVuSans-20" x="2048.787109"/>
     <use xlink:href="#DejaVuSans-56" x="2080.574219"/>
     <use xlink:href="#DejaVuSans-31" x="2148.982422"/>
     <use xlink:href="#DejaVuSans-30" x="2212.605469"/>
     <use xlink:href="#DejaVuSans-30" x="2276.228516"/>
     <use xlink:href="#DejaVuSans-20" x="2339.851562"/>
     <use xlink:href="#DejaVuSans-47" x="2371.638672"/>
     <use xlink:href="#DejaVuSans-50" x="2449.128906"/>
     <use xlink:href="#DejaVuSans-55" x="2509.431641"/>
     <use xlink:href="#DejaVuSans-73" x="2582.625"/>
     <use xlink:href="#DejaVuSans-29" x="2634.724609"/>
    </g>
   </g>
   <g id="legend_2">
    <g id="patch_30">
     <path d="M 439.764375 91.502115 
L 543.405 91.502115 
Q 545.605 91.502115 545.605 89.302115 
L 545.605 25.818365 
Q 545.605 23.618365 543.405 23.618365 
L 439.764375 23.618365 
Q 437.564375 23.618365 437.564375 25.818365 
L 437.564375 89.302115 
Q 437.564375 91.502115 439.764375 91.502115 
z
" style="fill: #eaeaf2; opacity: 0.8; stroke: #cccccc; stroke-linejoin: miter"/>
    </g>
    <g id="patch_31">
     <path d="M 441.964375 36.376646 
L 463.964375 36.376646 
L 463.964375 28.676646 
L 441.964375 28.676646 
z
" style="fill: #ffcd17; stroke: #ffffff; stroke-linejoin: miter"/>
    </g>
    <g id="text_26">
     <!-- FFCV -->
     <g style="fill: #262626" transform="translate(472.764375 36.376646)scale(0.11 -0.11)">
      <use xlink:href="#DejaVuSans-46"/>
      <use xlink:href="#DejaVuSans-46" x="57.519531"/>
      <use xlink:href="#DejaVuSans-43" x="115.039062"/>
      <use xlink:href="#DejaVuSans-56" x="184.863281"/>
     </g>
    </g>
    <g id="patch_32">
     <path d="M 441.964375 52.522584 
L 463.964375 52.522584 
L 463.964375 44.822584 
L 441.964375 44.822584 
z
" style="fill: #dddddd; stroke: #ffffff; stroke-linejoin: miter"/>
    </g>
    <g id="text_27">
     <!-- NVIDIA DALI -->
     <g style="fill: #262626" transform="translate(472.764375 52.522584)scale(0.11 -0.11)">
      <use xlink:href="#DejaVuSans-4e"/>
      <use xlink:href="#DejaVuSans-56" x="74.804688"/>
      <use xlink:href="#DejaVuSans-49" x="143.212891"/>
      <use xlink:href="#DejaVuSans-44" x="172.705078"/>
      <use xlink:href="#DejaVuSans-49" x="249.707031"/>
      <use xlink:href="#DejaVuSans-41" x="279.199219"/>
      <use xlink:href="#DejaVuSans-20" x="347.607422"/>
      <use xlink:href="#DejaVuSans-44" x="379.394531"/>
      <use xlink:href="#DejaVuSans-41" x="454.646484"/>
      <use xlink:href="#DejaVuSans-4c" x="523.054688"/>
      <use xlink:href="#DejaVuSans-49" x="578.767578"/>
     </g>
    </g>
    <g id="patch_33">
     <path d="M 441.964375 68.668521 
L 463.964375 68.668521 
L 463.964375 60.968521 
L 441.964375 60.968521 
z
" style="fill: #aaaaaa; stroke: #ffffff; stroke-linejoin: miter"/>
    </g>
    <g id="text_28">
     <!-- ImageFolder -->
     <g style="fill: #262626" transform="translate(472.764375 68.668521)scale(0.11 -0.11)">
      <use xlink:href="#DejaVuSans-49"/>
      <use xlink:href="#DejaVuSans-6d" x="29.492188"/>
      <use xlink:href="#DejaVuSans-61" x="126.904297"/>
      <use xlink:href="#DejaVuSans-67" x="188.183594"/>
      <use xlink:href="#DejaVuSans-65" x="251.660156"/>
      <use xlink:href="#DejaVuSans-46" x="313.183594"/>
      <use xlink:href="#DejaVuSans-6f" x="367.078125"/>
      <use xlink:href="#DejaVuSans-6c" x="428.259766"/>
      <use xlink:href="#DejaVuSans-64" x="456.042969"/>
      <use xlink:href="#DejaVuSans-65" x="519.519531"/>
      <use xlink:href="#DejaVuSans-72" x="581.042969"/>
     </g>
    </g>
    <g id="patch_34">
     <path d="M 441.964375 84.814459 
L 463.964375 84.814459 
L 463.964375 77.114459 
L 441.964375 77.114459 
z
" style="fill: #777777; stroke: #ffffff; stroke-linejoin: miter"/>
    </g>
    <g id="text_29">
     <!-- WebDataset -->
     <g style="fill: #262626" transform="translate(472.764375 84.814459)scale(0.11 -0.11)">
      <defs>
       <path id="DejaVuSans-62" d="M 3116 1747 
Q 3116 2381 2855 2742 
Q 2594 3103 2138 3103 
Q 1681 3103 1420 2742 
Q 1159 2381 1159 1747 
Q 1159 1113 1420 752 
Q 1681 391 2138 391 
Q 2594 391 2855 752 
Q 3116 1113 3116 1747 
z
M 1159 2969 
Q 1341 3281 1617 3432 
Q 1894 3584 2278 3584 
Q 2916 3584 3314 3078 
Q 3713 2572 3713 1747 
Q 3713 922 3314 415 
Q 2916 -91 2278 -91 
Q 1894 -91 1617 61 
Q 1341 213 1159 525 
L 1159 0 
L 581 0 
L 581 4863 
L 1159 4863 
L 1159 2969 
z
" transform="scale(0.015625)"/>
      </defs>
      <use xlink:href="#DejaVuSans-57"/>
      <use xlink:href="#DejaVuSans-65" x="93.001953"/>
      <use xlink:href="#DejaVuSans-62" x="154.525391"/>
      <use xlink:href="#DejaVuSans-44" x="218.001953"/>
      <use xlink:href="#DejaVuSans-61" x="295.003906"/>
      <use xlink:href="#DejaVuSans-74" x="356.283203"/>
      <use xlink:href="#DejaVuSans-61" x="395.492188"/>
      <use xlink:href="#DejaVuSans-73" x="456.771484"/>
      <use xlink:href="#DejaVuSans-65" x="508.871094"/>
      <use xlink:href="#DejaVuSans-74" x="570.394531"/>
     </g>
    </g>
   </g>
  </g>
 </g>
 <defs>
  <clipPath id="p5af8156e50">
   <rect x="42.11149" y="18.118365" width="343.060385" height="176.817864"/>
  </clipPath>
  <clipPath id="p1e484232bf">
   <rect x="432.064375" y="18.118365" width="343.060385" height="176.817864"/>
  </clipPath>
 </defs>
</svg>
