<svg id="Layer_1" data-name="Layer 1" xmlns="http://www.w3.org/2000/svg" viewBox="0 0 849 187"><defs><style>.cls-1{fill:#fde119;}.cls-2{fill:#101820;}</style></defs><rect class="cls-1" width="849" height="187"/><path class="cls-2" d="M187.67,141.56l-5.77,11.33h-33q-3,0-13.08-3.09c-1.93-.62-7.52-1-16.8-1h-1.64l.61-1.44,15.56-.42a30.79,30.79,0,0,0,8.24-1.95,31,31,0,0,1,8.14-2Zm7-13.09L188,141H168.2q-7.72,0-21.95-2.57-14.73-2.68-21.94-2.79l.82-1.44,14.84-.41a34.29,34.29,0,0,0,8.76-2,34.67,34.67,0,0,1,8.65-2Zm7-13.08L195,128l-34.83-1.24a21.46,21.46,0,0,1-6.75-2,19.24,19.24,0,0,0-6.85-1.85l-15.35-.21.62-1.54,15.66-.41a29.23,29.23,0,0,0,7.88-1.91,29.24,29.24,0,0,1,7.78-1.91Zm6.9-13.09L201.89,115l-34.41-1.34q-1.54-.11-11-3.1-2.77-.92-16.28-1h-1.95l.41-1.54h7.83a48.62,48.62,0,0,0,11.64-2,57.58,57.58,0,0,1,11.54-2.16ZM266.18,89l-6.91,12.57-85.3-1a18.84,18.84,0,0,1-6.8-1.85,21,21,0,0,0-6.7-2l-15.35-.41.93-1.45a179.83,179.83,0,0,0,19.57-2.26,133.72,133.72,0,0,1,19.68-2.06Q187.06,90.56,266.18,89Zm6.9-13.08-6.49,12.36-85.41-.82a75.93,75.93,0,0,1-14.63-2.06,83.69,83.69,0,0,0-14.42-2.17l.61-1.44A108.2,108.2,0,0,0,169,79.69a108.2,108.2,0,0,1,16.23-2.11Zm6.7-12.88-6.49,12.36-85.83-1a18.11,18.11,0,0,1-6.8-1.95,17.8,17.8,0,0,0-6.69-2l-15-.31.51-1.34q10.51-.31,34.82-3.19,22.37-2.58,34.83-2.58ZM236.3,49.86l-6.7,12.67L195.91,61.4a24.16,24.16,0,0,1-7.31-2,24.22,24.22,0,0,0-7.42-2l-15.35-.31.82-1.44L182,55.22a31.63,31.63,0,0,0,8.25-1.91,31.89,31.89,0,0,1,8.14-1.9Zm57.28-13.29-6.49,12.57h-51.2q-13,0-31.43-.93A121.46,121.46,0,0,1,188.7,46a105.57,105.57,0,0,0-15.87-2l.83-1.55a119.18,119.18,0,0,0,17.15-2.11A120.59,120.59,0,0,1,208,38.22Zm6.91-13.08L294,35.85l-84.37-.72a80.5,80.5,0,0,1-14.94-2.06,88.77,88.77,0,0,0-14.94-2.16l.82-1.45a112.58,112.58,0,0,0,16.85-2.16,113.71,113.71,0,0,1,16.94-2.16Zm5.77-11.23-5.47,10.61-82.31-.93a106.4,106.4,0,0,1-15.92-2.06,107.92,107.92,0,0,0-15.92-2.06l.82-1.54a120.66,120.66,0,0,0,16.69-2.07,103.14,103.14,0,0,1,16.8-2Z" transform="translate(9.98 18.05)"/><path class="cls-2" d="M312.13,141.56l-5.77,11.33h-33q-3,0-13.09-3.09-2.88-.93-16.79-1h-1.65l.62-1.44,15.56-.42a30.79,30.79,0,0,0,8.24-1.95,30.89,30.89,0,0,1,8.14-2Zm7-13.09L312.44,141H292.66q-7.74,0-22-2.57-14.73-2.68-21.94-2.79l.82-1.44,14.84-.41a34.24,34.24,0,0,0,8.75-2,34.73,34.73,0,0,1,8.66-2Zm7-13.08L319.44,128l-34.82-1.24a21.46,21.46,0,0,1-6.75-2,19.24,19.24,0,0,0-6.85-1.85l-15.35-.21.62-1.54,15.66-.41a29.23,29.23,0,0,0,7.88-1.91,29.24,29.24,0,0,1,7.78-1.91ZM333,102.3,326.35,115l-34.42-1.34q-1.55-.11-11-3.1-2.78-.92-16.28-1h-2l.42-1.54h7.83a48.69,48.69,0,0,0,11.64-2,57.46,57.46,0,0,1,11.54-2.16ZM390.63,89l-6.9,12.57-85.3-1a18.93,18.93,0,0,1-6.81-1.85,20.93,20.93,0,0,0-6.69-2l-15.35-.41.92-1.45a180,180,0,0,0,19.58-2.26,133.72,133.72,0,0,1,19.68-2.06Q311.52,90.56,390.63,89Zm6.91-13.08-6.49,12.36-85.41-.82A75.83,75.83,0,0,1,291,85.41a83.64,83.64,0,0,0-14.43-2.17l.62-1.44a108.2,108.2,0,0,0,16.23-2.11,108,108,0,0,1,16.22-2.11Zm6.69-12.88-6.49,12.36-85.82-1a18.06,18.06,0,0,1-6.8-1.95,17.84,17.84,0,0,0-6.69-2l-15.05-.31.52-1.34q10.5-.31,34.82-3.19,22.35-2.58,34.82-2.58ZM360.76,49.86l-6.7,12.67L320.37,61.4a24.21,24.21,0,0,1-7.32-2,24.11,24.11,0,0,0-7.41-2l-15.35-.31.82-1.44,15.35-.41a31.58,31.58,0,0,0,8.24-1.91,32,32,0,0,1,8.14-1.9ZM418,36.57l-6.49,12.57H360.34q-13,0-31.42-.93A121.23,121.23,0,0,1,313.16,46a105.57,105.57,0,0,0-15.87-2l.83-1.55a119.18,119.18,0,0,0,17.15-2.11,120.65,120.65,0,0,1,17.15-2.11Zm6.9-13.08-6.49,12.36-84.38-.72a80.71,80.71,0,0,1-14.94-2.06,88.49,88.49,0,0,0-14.94-2.16l.83-1.45a112.32,112.32,0,0,0,16.84-2.16,113.66,113.66,0,0,1,16.95-2.16Zm5.77-11.23-5.46,10.61-82.32-.93A106.3,106.3,0,0,1,327,19.88a108.08,108.08,0,0,0-15.92-2.06l.82-1.54a120.83,120.83,0,0,0,16.69-2.07,103.14,103.14,0,0,1,16.8-2Z" transform="translate(9.98 18.05)"/><path class="cls-2" d="M471.61,115.08l-57.9-1.34a24.64,24.64,0,0,1-7.26-1.91,25,25,0,0,0-7.26-1.9l-15.77-.52L384,108l15.45-.21a27,27,0,0,0,8.2-1.85,30.32,30.32,0,0,1,8.08-2l41.42-1.34Q460.9,111.37,471.61,115.08Zm33.59-1.55-7.83,14.74-82.83-1.45a90,90,0,0,1-14.69-2.06,91.88,91.88,0,0,0-14.78-2.06l.72-1.65,9.58.21a44.8,44.8,0,0,0,11.13-2,60,60,0,0,1,11-2.37q9.36-.62,23.69-.31,22.56.42,23.7.42Q489.34,117,505.2,113.53ZM457.5,89.42a28.85,28.85,0,0,0-.62,12.78l-42.34-1.65q-1.86-.1-10.41-2.88-3.09-1-16.9-1.24h-2L385.9,95h4.73c2.34.07,3.92.1,4.74.1A43.94,43.94,0,0,0,406.6,93a48.87,48.87,0,0,1,11-2.22Zm6.9-13A74.28,74.28,0,0,0,457.5,89l-38.95-1.44q-.82,0-11-3.19-3-.93-15.25-1.14H389.4L390,81.9l16-.41a32,32,0,0,0,8.34-2,32.29,32.29,0,0,1,8.35-2Zm32.77,52.24-6.7,12.57L420.2,139.8q-1.74,0-10.81-2.88-3-.93-19.06-1.34l1-1.54,9.48.1a44.36,44.36,0,0,0,11-2A49.31,49.31,0,0,1,422.57,130ZM477.38,63.26a104.64,104.64,0,0,0-12.57,12.67L423.4,74.38c-1-.06-4.09-1-9.38-2.88q-3.5-1.25-17.2-1.44H395l.83-1.34,9.06.1a44.69,44.69,0,0,0,11-2A53.2,53.2,0,0,1,427,64.7Zm27.51-12.88a69.35,69.35,0,0,0-26.68,12.36l-40.9-1.13a36.42,36.42,0,0,1-9.12-2,36.5,36.5,0,0,0-9-2l-15.86-.52.72-1.44h6.9a64.34,64.34,0,0,0,13.34-2,71.77,71.77,0,0,1,13.14-2.11Zm-14.63,91.28L484,153.3a86.82,86.82,0,0,1-19.89,2.37A127.66,127.66,0,0,1,432.67,152a102,102,0,0,0-12.16-2.88l-15.25-.41.42-1.34h4.53c2.2.07,3.71.1,4.53.1q4.13,0,11.95-2.16A54,54,0,0,1,438.44,143ZM545.79,37.09l-7.62,14.32a51.56,51.56,0,0,0-13.6-1.75q20.4.2-13.81.2-42.54,0-62.12-1.44-11.24-2.06-34-4.43l.82-1.55a117.23,117.23,0,0,0,16.23-1.95,117.6,117.6,0,0,1,16.23-2ZM552.59,24,546,36.47l-84.17-1a115.81,115.81,0,0,1-16.18-2,103.18,103.18,0,0,0-16.38-1.91l1-1.95,10.3.2a41.66,41.66,0,0,0,11.08-2.16,46,46,0,0,1,10.87-2.27Zm5.46-10.3-5.25,9.68-69.34-1.13A106,106,0,0,1,468,20.19a83.61,83.61,0,0,0-15.56-1.75l.93-1.86q11-.3,35-3.6,22.66-3.19,35-3.2A150.11,150.11,0,0,1,558.05,13.7Z" transform="translate(9.98 18.05)"/><path class="cls-2" d="M606.37,141.76l-9.06,11.13H550.94a31.85,31.85,0,0,1-8.86-1.85,35.42,35.42,0,0,0-8.75-2l-13.81-.41.52-1.24h8.34a49.42,49.42,0,0,0,11.9-2.11A54.89,54.89,0,0,1,552,143.1Zm10.72-13-10.2,12.47-55-1.45q-.3,0-11.74-3.29-2.48-.72-16.08-.93h-1.54l.72-1.34,15.45-.41a31,31,0,0,0,8.09-1.91A31.36,31.36,0,0,1,555,130Zm11-13.29L617.6,128.16q-20.4.21-61-1.44A116.82,116.82,0,0,0,541.05,123l-15.66-.62.73-1.23q9.78-.21,31.11-3.09,20.4-2.79,32.86-2.79,4.13,0,19.07.21Q620.91,115.6,628.11,115.49Zm10.82-13.08-10.51,12.67-71.19-1.44a18.61,18.61,0,0,1-6.65-1.81,21.2,21.2,0,0,0-6.54-1.9l-15.66-.52.72-1.34H534c2.33.07,3.91.11,4.73.11a46.67,46.67,0,0,0,11.65-2.12,51.8,51.8,0,0,1,11.43-2.21Zm10.72-13-10.31,12.47H618.12a71.12,71.12,0,0,1-22.56-3.3l-1.14,4.12-35.23-2.26q-9.29-1.86-27.92-3.92L532,95a105.5,105.5,0,0,0,15.76-2,128.26,128.26,0,0,1,15.76-2.16l34.21-1.55L596.9,93a123,123,0,0,1,26.27-3.3Q636.36,89.64,649.65,89.42Zm10.61-12.87-10.2,12.36-36.48-1.34a24.22,24.22,0,0,1-7.31-1.91,28,28,0,0,0-7-2L598,88.81l-34.82-1.34a103.25,103.25,0,0,1-14.27-2.11,89.34,89.34,0,0,0-14.58-2l.72-1.34A101.81,101.81,0,0,0,550.69,80,114.9,114.9,0,0,1,566,77.78l35.13-1.54-1.24,5.25a50.26,50.26,0,0,0,9.17-1.9,42.59,42.59,0,0,1,9.28-1.81Zm10.82-13.29-10.2,12.57-36-1.34a56.34,56.34,0,0,1-11.13-2,63.81,63.81,0,0,0-11-2.06l-1.44,5.46-35.24-1.44a99.14,99.14,0,0,1-14.37-2.17,100.06,100.06,0,0,0-14.48-2.16l.62-1.24q7.83-.19,24.62-3,16-2.57,24.63-2.57,15.35,0,17.31-.1l-1.34,5.35h3.5a46.09,46.09,0,0,0,11-2,50.55,50.55,0,0,1,10.82-2.06ZM681.79,50l-10.1,12.56-36-1.13a93,93,0,0,1-14.69-2.06,93.65,93.65,0,0,0-15-2.06l-1.44,5.56q-3.71-.09-9.48,0-7.83.1-9.47.11-7.93,0-22.77-2.78-15.36-2.89-22.88-3l.83-1.45a105.13,105.13,0,0,0,16-2.06,123.65,123.65,0,0,1,15.71-2.16l35.13-1.34-1.44,5.56a115.47,115.47,0,0,0,16.85-2.06,135.11,135.11,0,0,1,16.53-2.16ZM611.11,37.09l-3.19,12.46-35.75-1.34a23.09,23.09,0,0,1-6.75-1.8,23.42,23.42,0,0,0-6.75-1.8l-15.56-.41.73-1.86h15.24a26.53,26.53,0,0,0,8.3-1.9,29.65,29.65,0,0,1,8.09-2ZM614.41,24l-3.09,12.37L574.13,35q-2.48-.11-9.38-2.37-4.12-1.33-17.21-1.45H546l1-1.75,15.45-.31a29.82,29.82,0,0,0,8-1.9,30.37,30.37,0,0,1,7.88-1.91Zm2.78-11.74-2.57,11-33.69-1q-4-.11-14.74-3.19-2.88-.82-16.79-.93h-.93l1-1.75,13.91-.1a38.86,38.86,0,0,0,10.2-2,38.93,38.93,0,0,1,10.2-2ZM692.4,37.09,682.3,49.45l-35.54-1.13q-3.19-.1-11.54-2.89-3.71-1.23-18.44-1.34h-1l.72-1.44h4.84c2.48.07,4.09.1,4.85.1a44.17,44.17,0,0,0,11.33-2.11,48.66,48.66,0,0,1,11-2.21ZM703.12,24l-10.2,12.37-38.54-1.65A22.42,22.42,0,0,1,648.1,33a19.23,19.23,0,0,0-6.39-1.6l-15.66-.31.83-1.54h5c2.41.07,4.06.1,5,.1A42.4,42.4,0,0,0,648,27.56a46.83,46.83,0,0,1,10.86-2.22Zm9.47-11.74-8.86,10.92-37.19-1.24a24.48,24.48,0,0,1-7.11-1.9,21.51,21.51,0,0,0-7.21-1.81l-15.66-.1.72-1.75c1.38,0,3.26,0,5.67.1,2.68.07,4.57.1,5.66.1q4.44,0,12.93-2.16t12.93-2.16Z" transform="translate(9.98 18.05)"/></svg>