<?xml version="1.0" encoding="utf-8" standalone="no"?>
<!DOCTYPE svg PUBLIC "-//W3C//DTD SVG 1.1//EN"
  "http://www.w3.org/Graphics/SVG/1.1/DTD/svg11.dtd">
<svg xmlns:xlink="http://www.w3.org/1999/xlink" width="622.5pt" height="230.4pt" viewBox="0 0 622.5 230.4" xmlns="http://www.w3.org/2000/svg" version="1.1">
 <metadata>
  <rdf:RDF xmlns:dc="http://purl.org/dc/elements/1.1/" xmlns:cc="http://creativecommons.org/ns#" xmlns:rdf="http://www.w3.org/1999/02/22-rdf-syntax-ns#">
   <cc:Work>
    <dc:type rdf:resource="http://purl.org/dc/dcmitype/StillImage"/>
    <dc:date>2022-01-18T13:45:47.732283</dc:date>
    <dc:format>image/svg+xml</dc:format>
    <dc:creator>
     <cc:Agent>
      <dc:title>Matplotlib v3.5.0, https://matplotlib.org/</dc:title>
     </cc:Agent>
    </dc:creator>
   </cc:Work>
  </rdf:RDF>
 </metadata>
 <defs>
  <style type="text/css">*{stroke-linejoin: round; stroke-linecap: butt}</style>
 </defs>
 <g id="figure_1">
  <g id="patch_1">
   <path d="M 0 230.4 
L 622.5 230.4 
L 622.5 0 
L 0 0 
z
" style="fill: #ffffff"/>
  </g>
  <g id="axes_1">
   <g id="patch_2">
    <path d="M 42.11149 194.936229 
L 619.49976 194.936229 
L 619.49976 18.118365 
L 42.11149 18.118365 
z
" style="fill: #eaeaf2"/>
   </g>
   <g id="matplotlib.axis_1">
    <g id="xtick_1">
     <g id="line2d_1">
      <path d="M 186.458557 194.936229 
L 186.458557 18.118365 
" clip-path="url(#pcae5e3d79e)" style="fill: none; stroke: #ffffff; stroke-linecap: round"/>
     </g>
     <g id="text_1">
      <!-- 1 Concurrent ResNet-50 -->
      <g style="fill: #262626" transform="translate(120.472307 212.79451)scale(0.11 -0.11)">
       <defs>
        <path id="DejaVuSans-31" d="M 794 531 
L 1825 531 
L 1825 4091 
L 703 3866 
L 703 4441 
L 1819 4666 
L 2450 4666 
L 2450 531 
L 3481 531 
L 3481 0 
L 794 0 
L 794 531 
z
" transform="scale(0.015625)"/>
        <path id="DejaVuSans-20" transform="scale(0.015625)"/>
        <path id="DejaVuSans-43" d="M 4122 4306 
L 4122 3641 
Q 3803 3938 3442 4084 
Q 3081 4231 2675 4231 
Q 1875 4231 1450 3742 
Q 1025 3253 1025 2328 
Q 1025 1406 1450 917 
Q 1875 428 2675 428 
Q 3081 428 3442 575 
Q 3803 722 4122 1019 
L 4122 359 
Q 3791 134 3420 21 
Q 3050 -91 2638 -91 
Q 1578 -91 968 557 
Q 359 1206 359 2328 
Q 359 3453 968 4101 
Q 1578 4750 2638 4750 
Q 3056 4750 3426 4639 
Q 3797 4528 4122 4306 
z
" transform="scale(0.015625)"/>
        <path id="DejaVuSans-6f" d="M 1959 3097 
Q 1497 3097 1228 2736 
Q 959 2375 959 1747 
Q 959 1119 1226 758 
Q 1494 397 1959 397 
Q 2419 397 2687 759 
Q 2956 1122 2956 1747 
Q 2956 2369 2687 2733 
Q 2419 3097 1959 3097 
z
M 1959 3584 
Q 2709 3584 3137 3096 
Q 3566 2609 3566 1747 
Q 3566 888 3137 398 
Q 2709 -91 1959 -91 
Q 1206 -91 779 398 
Q 353 888 353 1747 
Q 353 2609 779 3096 
Q 1206 3584 1959 3584 
z
" transform="scale(0.015625)"/>
        <path id="DejaVuSans-6e" d="M 3513 2113 
L 3513 0 
L 2938 0 
L 2938 2094 
Q 2938 2591 2744 2837 
Q 2550 3084 2163 3084 
Q 1697 3084 1428 2787 
Q 1159 2491 1159 1978 
L 1159 0 
L 581 0 
L 581 3500 
L 1159 3500 
L 1159 2956 
Q 1366 3272 1645 3428 
Q 1925 3584 2291 3584 
Q 2894 3584 3203 3211 
Q 3513 2838 3513 2113 
z
" transform="scale(0.015625)"/>
        <path id="DejaVuSans-63" d="M 3122 3366 
L 3122 2828 
Q 2878 2963 2633 3030 
Q 2388 3097 2138 3097 
Q 1578 3097 1268 2742 
Q 959 2388 959 1747 
Q 959 1106 1268 751 
Q 1578 397 2138 397 
Q 2388 397 2633 464 
Q 2878 531 3122 666 
L 3122 134 
Q 2881 22 2623 -34 
Q 2366 -91 2075 -91 
Q 1284 -91 818 406 
Q 353 903 353 1747 
Q 353 2603 823 3093 
Q 1294 3584 2113 3584 
Q 2378 3584 2631 3529 
Q 2884 3475 3122 3366 
z
" transform="scale(0.015625)"/>
        <path id="DejaVuSans-75" d="M 544 1381 
L 544 3500 
L 1119 3500 
L 1119 1403 
Q 1119 906 1312 657 
Q 1506 409 1894 409 
Q 2359 409 2629 706 
Q 2900 1003 2900 1516 
L 2900 3500 
L 3475 3500 
L 3475 0 
L 2900 0 
L 2900 538 
Q 2691 219 2414 64 
Q 2138 -91 1772 -91 
Q 1169 -91 856 284 
Q 544 659 544 1381 
z
M 1991 3584 
L 1991 3584 
z
" transform="scale(0.015625)"/>
        <path id="DejaVuSans-72" d="M 2631 2963 
Q 2534 3019 2420 3045 
Q 2306 3072 2169 3072 
Q 1681 3072 1420 2755 
Q 1159 2438 1159 1844 
L 1159 0 
L 581 0 
L 581 3500 
L 1159 3500 
L 1159 2956 
Q 1341 3275 1631 3429 
Q 1922 3584 2338 3584 
Q 2397 3584 2469 3576 
Q 2541 3569 2628 3553 
L 2631 2963 
z
" transform="scale(0.015625)"/>
        <path id="DejaVuSans-65" d="M 3597 1894 
L 3597 1613 
L 953 1613 
Q 991 1019 1311 708 
Q 1631 397 2203 397 
Q 2534 397 2845 478 
Q 3156 559 3463 722 
L 3463 178 
Q 3153 47 2828 -22 
Q 2503 -91 2169 -91 
Q 1331 -91 842 396 
Q 353 884 353 1716 
Q 353 2575 817 3079 
Q 1281 3584 2069 3584 
Q 2775 3584 3186 3129 
Q 3597 2675 3597 1894 
z
M 3022 2063 
Q 3016 2534 2758 2815 
Q 2500 3097 2075 3097 
Q 1594 3097 1305 2825 
Q 1016 2553 972 2059 
L 3022 2063 
z
" transform="scale(0.015625)"/>
        <path id="DejaVuSans-74" d="M 1172 4494 
L 1172 3500 
L 2356 3500 
L 2356 3053 
L 1172 3053 
L 1172 1153 
Q 1172 725 1289 603 
Q 1406 481 1766 481 
L 2356 481 
L 2356 0 
L 1766 0 
Q 1100 0 847 248 
Q 594 497 594 1153 
L 594 3053 
L 172 3053 
L 172 3500 
L 594 3500 
L 594 4494 
L 1172 4494 
z
" transform="scale(0.015625)"/>
        <path id="DejaVuSans-52" d="M 2841 2188 
Q 3044 2119 3236 1894 
Q 3428 1669 3622 1275 
L 4263 0 
L 3584 0 
L 2988 1197 
Q 2756 1666 2539 1819 
Q 2322 1972 1947 1972 
L 1259 1972 
L 1259 0 
L 628 0 
L 628 4666 
L 2053 4666 
Q 2853 4666 3247 4331 
Q 3641 3997 3641 3322 
Q 3641 2881 3436 2590 
Q 3231 2300 2841 2188 
z
M 1259 4147 
L 1259 2491 
L 2053 2491 
Q 2509 2491 2742 2702 
Q 2975 2913 2975 3322 
Q 2975 3731 2742 3939 
Q 2509 4147 2053 4147 
L 1259 4147 
z
" transform="scale(0.015625)"/>
        <path id="DejaVuSans-73" d="M 2834 3397 
L 2834 2853 
Q 2591 2978 2328 3040 
Q 2066 3103 1784 3103 
Q 1356 3103 1142 2972 
Q 928 2841 928 2578 
Q 928 2378 1081 2264 
Q 1234 2150 1697 2047 
L 1894 2003 
Q 2506 1872 2764 1633 
Q 3022 1394 3022 966 
Q 3022 478 2636 193 
Q 2250 -91 1575 -91 
Q 1294 -91 989 -36 
Q 684 19 347 128 
L 347 722 
Q 666 556 975 473 
Q 1284 391 1588 391 
Q 1994 391 2212 530 
Q 2431 669 2431 922 
Q 2431 1156 2273 1281 
Q 2116 1406 1581 1522 
L 1381 1569 
Q 847 1681 609 1914 
Q 372 2147 372 2553 
Q 372 3047 722 3315 
Q 1072 3584 1716 3584 
Q 2034 3584 2315 3537 
Q 2597 3491 2834 3397 
z
" transform="scale(0.015625)"/>
        <path id="DejaVuSans-4e" d="M 628 4666 
L 1478 4666 
L 3547 763 
L 3547 4666 
L 4159 4666 
L 4159 0 
L 3309 0 
L 1241 3903 
L 1241 0 
L 628 0 
L 628 4666 
z
" transform="scale(0.015625)"/>
        <path id="DejaVuSans-2d" d="M 313 2009 
L 1997 2009 
L 1997 1497 
L 313 1497 
L 313 2009 
z
" transform="scale(0.015625)"/>
        <path id="DejaVuSans-35" d="M 691 4666 
L 3169 4666 
L 3169 4134 
L 1269 4134 
L 1269 2991 
Q 1406 3038 1543 3061 
Q 1681 3084 1819 3084 
Q 2600 3084 3056 2656 
Q 3513 2228 3513 1497 
Q 3513 744 3044 326 
Q 2575 -91 1722 -91 
Q 1428 -91 1123 -41 
Q 819 9 494 109 
L 494 744 
Q 775 591 1075 516 
Q 1375 441 1709 441 
Q 2250 441 2565 725 
Q 2881 1009 2881 1497 
Q 2881 1984 2565 2268 
Q 2250 2553 1709 2553 
Q 1456 2553 1204 2497 
Q 953 2441 691 2322 
L 691 4666 
z
" transform="scale(0.015625)"/>
        <path id="DejaVuSans-30" d="M 2034 4250 
Q 1547 4250 1301 3770 
Q 1056 3291 1056 2328 
Q 1056 1369 1301 889 
Q 1547 409 2034 409 
Q 2525 409 2770 889 
Q 3016 1369 3016 2328 
Q 3016 3291 2770 3770 
Q 2525 4250 2034 4250 
z
M 2034 4750 
Q 2819 4750 3233 4129 
Q 3647 3509 3647 2328 
Q 3647 1150 3233 529 
Q 2819 -91 2034 -91 
Q 1250 -91 836 529 
Q 422 1150 422 2328 
Q 422 3509 836 4129 
Q 1250 4750 2034 4750 
z
" transform="scale(0.015625)"/>
       </defs>
       <use xlink:href="#DejaVuSans-31"/>
       <use xlink:href="#DejaVuSans-20" x="63.623047"/>
       <use xlink:href="#DejaVuSans-43" x="95.410156"/>
       <use xlink:href="#DejaVuSans-6f" x="165.234375"/>
       <use xlink:href="#DejaVuSans-6e" x="226.416016"/>
       <use xlink:href="#DejaVuSans-63" x="289.794922"/>
       <use xlink:href="#DejaVuSans-75" x="344.775391"/>
       <use xlink:href="#DejaVuSans-72" x="408.154297"/>
       <use xlink:href="#DejaVuSans-72" x="447.517578"/>
       <use xlink:href="#DejaVuSans-65" x="486.380859"/>
       <use xlink:href="#DejaVuSans-6e" x="547.904297"/>
       <use xlink:href="#DejaVuSans-74" x="611.283203"/>
       <use xlink:href="#DejaVuSans-20" x="650.492188"/>
       <use xlink:href="#DejaVuSans-52" x="682.279297"/>
       <use xlink:href="#DejaVuSans-65" x="747.261719"/>
       <use xlink:href="#DejaVuSans-73" x="808.785156"/>
       <use xlink:href="#DejaVuSans-4e" x="860.884766"/>
       <use xlink:href="#DejaVuSans-65" x="935.689453"/>
       <use xlink:href="#DejaVuSans-74" x="997.212891"/>
       <use xlink:href="#DejaVuSans-2d" x="1036.421875"/>
       <use xlink:href="#DejaVuSans-35" x="1072.505859"/>
       <use xlink:href="#DejaVuSans-30" x="1136.128906"/>
      </g>
      <!-- (8xA100 GPUs) -->
      <g style="fill: #262626" transform="translate(144.935276 225.112104)scale(0.11 -0.11)">
       <defs>
        <path id="DejaVuSans-28" d="M 1984 4856 
Q 1566 4138 1362 3434 
Q 1159 2731 1159 2009 
Q 1159 1288 1364 580 
Q 1569 -128 1984 -844 
L 1484 -844 
Q 1016 -109 783 600 
Q 550 1309 550 2009 
Q 550 2706 781 3412 
Q 1013 4119 1484 4856 
L 1984 4856 
z
" transform="scale(0.015625)"/>
        <path id="DejaVuSans-38" d="M 2034 2216 
Q 1584 2216 1326 1975 
Q 1069 1734 1069 1313 
Q 1069 891 1326 650 
Q 1584 409 2034 409 
Q 2484 409 2743 651 
Q 3003 894 3003 1313 
Q 3003 1734 2745 1975 
Q 2488 2216 2034 2216 
z
M 1403 2484 
Q 997 2584 770 2862 
Q 544 3141 544 3541 
Q 544 4100 942 4425 
Q 1341 4750 2034 4750 
Q 2731 4750 3128 4425 
Q 3525 4100 3525 3541 
Q 3525 3141 3298 2862 
Q 3072 2584 2669 2484 
Q 3125 2378 3379 2068 
Q 3634 1759 3634 1313 
Q 3634 634 3220 271 
Q 2806 -91 2034 -91 
Q 1263 -91 848 271 
Q 434 634 434 1313 
Q 434 1759 690 2068 
Q 947 2378 1403 2484 
z
M 1172 3481 
Q 1172 3119 1398 2916 
Q 1625 2713 2034 2713 
Q 2441 2713 2670 2916 
Q 2900 3119 2900 3481 
Q 2900 3844 2670 4047 
Q 2441 4250 2034 4250 
Q 1625 4250 1398 4047 
Q 1172 3844 1172 3481 
z
" transform="scale(0.015625)"/>
        <path id="DejaVuSans-78" d="M 3513 3500 
L 2247 1797 
L 3578 0 
L 2900 0 
L 1881 1375 
L 863 0 
L 184 0 
L 1544 1831 
L 300 3500 
L 978 3500 
L 1906 2253 
L 2834 3500 
L 3513 3500 
z
" transform="scale(0.015625)"/>
        <path id="DejaVuSans-41" d="M 2188 4044 
L 1331 1722 
L 3047 1722 
L 2188 4044 
z
M 1831 4666 
L 2547 4666 
L 4325 0 
L 3669 0 
L 3244 1197 
L 1141 1197 
L 716 0 
L 50 0 
L 1831 4666 
z
" transform="scale(0.015625)"/>
        <path id="DejaVuSans-47" d="M 3809 666 
L 3809 1919 
L 2778 1919 
L 2778 2438 
L 4434 2438 
L 4434 434 
Q 4069 175 3628 42 
Q 3188 -91 2688 -91 
Q 1594 -91 976 548 
Q 359 1188 359 2328 
Q 359 3472 976 4111 
Q 1594 4750 2688 4750 
Q 3144 4750 3555 4637 
Q 3966 4525 4313 4306 
L 4313 3634 
Q 3963 3931 3569 4081 
Q 3175 4231 2741 4231 
Q 1884 4231 1454 3753 
Q 1025 3275 1025 2328 
Q 1025 1384 1454 906 
Q 1884 428 2741 428 
Q 3075 428 3337 486 
Q 3600 544 3809 666 
z
" transform="scale(0.015625)"/>
        <path id="DejaVuSans-50" d="M 1259 4147 
L 1259 2394 
L 2053 2394 
Q 2494 2394 2734 2622 
Q 2975 2850 2975 3272 
Q 2975 3691 2734 3919 
Q 2494 4147 2053 4147 
L 1259 4147 
z
M 628 4666 
L 2053 4666 
Q 2838 4666 3239 4311 
Q 3641 3956 3641 3272 
Q 3641 2581 3239 2228 
Q 2838 1875 2053 1875 
L 1259 1875 
L 1259 0 
L 628 0 
L 628 4666 
z
" transform="scale(0.015625)"/>
        <path id="DejaVuSans-55" d="M 556 4666 
L 1191 4666 
L 1191 1831 
Q 1191 1081 1462 751 
Q 1734 422 2344 422 
Q 2950 422 3222 751 
Q 3494 1081 3494 1831 
L 3494 4666 
L 4128 4666 
L 4128 1753 
Q 4128 841 3676 375 
Q 3225 -91 2344 -91 
Q 1459 -91 1007 375 
Q 556 841 556 1753 
L 556 4666 
z
" transform="scale(0.015625)"/>
        <path id="DejaVuSans-29" d="M 513 4856 
L 1013 4856 
Q 1481 4119 1714 3412 
Q 1947 2706 1947 2009 
Q 1947 1309 1714 600 
Q 1481 -109 1013 -844 
L 513 -844 
Q 928 -128 1133 580 
Q 1338 1288 1338 2009 
Q 1338 2731 1133 3434 
Q 928 4138 513 4856 
z
" transform="scale(0.015625)"/>
       </defs>
       <use xlink:href="#DejaVuSans-28"/>
       <use xlink:href="#DejaVuSans-38" x="39.013672"/>
       <use xlink:href="#DejaVuSans-78" x="102.636719"/>
       <use xlink:href="#DejaVuSans-41" x="161.816406"/>
       <use xlink:href="#DejaVuSans-31" x="230.224609"/>
       <use xlink:href="#DejaVuSans-30" x="293.847656"/>
       <use xlink:href="#DejaVuSans-30" x="357.470703"/>
       <use xlink:href="#DejaVuSans-20" x="421.09375"/>
       <use xlink:href="#DejaVuSans-47" x="452.880859"/>
       <use xlink:href="#DejaVuSans-50" x="530.371094"/>
       <use xlink:href="#DejaVuSans-55" x="590.673828"/>
       <use xlink:href="#DejaVuSans-73" x="663.867188"/>
       <use xlink:href="#DejaVuSans-29" x="715.966797"/>
      </g>
     </g>
    </g>
    <g id="xtick_2">
     <g id="line2d_2">
      <path d="M 475.152692 194.936229 
L 475.152692 18.118365 
" clip-path="url(#pcae5e3d79e)" style="fill: none; stroke: #ffffff; stroke-linecap: round"/>
     </g>
     <g id="text_2">
      <!-- 8 Concurrent ResNet-18's -->
      <g style="fill: #262626" transform="translate(404.789646 212.79451)scale(0.11 -0.11)">
       <defs>
        <path id="DejaVuSans-27" d="M 1147 4666 
L 1147 2931 
L 616 2931 
L 616 4666 
L 1147 4666 
z
" transform="scale(0.015625)"/>
       </defs>
       <use xlink:href="#DejaVuSans-38"/>
       <use xlink:href="#DejaVuSans-20" x="63.623047"/>
       <use xlink:href="#DejaVuSans-43" x="95.410156"/>
       <use xlink:href="#DejaVuSans-6f" x="165.234375"/>
       <use xlink:href="#DejaVuSans-6e" x="226.416016"/>
       <use xlink:href="#DejaVuSans-63" x="289.794922"/>
       <use xlink:href="#DejaVuSans-75" x="344.775391"/>
       <use xlink:href="#DejaVuSans-72" x="408.154297"/>
       <use xlink:href="#DejaVuSans-72" x="447.517578"/>
       <use xlink:href="#DejaVuSans-65" x="486.380859"/>
       <use xlink:href="#DejaVuSans-6e" x="547.904297"/>
       <use xlink:href="#DejaVuSans-74" x="611.283203"/>
       <use xlink:href="#DejaVuSans-20" x="650.492188"/>
       <use xlink:href="#DejaVuSans-52" x="682.279297"/>
       <use xlink:href="#DejaVuSans-65" x="747.261719"/>
       <use xlink:href="#DejaVuSans-73" x="808.785156"/>
       <use xlink:href="#DejaVuSans-4e" x="860.884766"/>
       <use xlink:href="#DejaVuSans-65" x="935.689453"/>
       <use xlink:href="#DejaVuSans-74" x="997.212891"/>
       <use xlink:href="#DejaVuSans-2d" x="1036.421875"/>
       <use xlink:href="#DejaVuSans-31" x="1072.505859"/>
       <use xlink:href="#DejaVuSans-38" x="1136.128906"/>
       <use xlink:href="#DejaVuSans-27" x="1199.751953"/>
       <use xlink:href="#DejaVuSans-73" x="1227.242188"/>
      </g>
      <!-- (1xA100 GPU) -->
      <g style="fill: #262626" transform="translate(436.494567 225.112104)scale(0.11 -0.11)">
       <use xlink:href="#DejaVuSans-28"/>
       <use xlink:href="#DejaVuSans-31" x="39.013672"/>
       <use xlink:href="#DejaVuSans-78" x="102.636719"/>
       <use xlink:href="#DejaVuSans-41" x="161.816406"/>
       <use xlink:href="#DejaVuSans-31" x="230.224609"/>
       <use xlink:href="#DejaVuSans-30" x="293.847656"/>
       <use xlink:href="#DejaVuSans-30" x="357.470703"/>
       <use xlink:href="#DejaVuSans-20" x="421.09375"/>
       <use xlink:href="#DejaVuSans-47" x="452.880859"/>
       <use xlink:href="#DejaVuSans-50" x="530.371094"/>
       <use xlink:href="#DejaVuSans-55" x="590.673828"/>
       <use xlink:href="#DejaVuSans-29" x="663.867188"/>
      </g>
     </g>
    </g>
   </g>
   <g id="matplotlib.axis_2">
    <g id="ytick_1">
     <g id="line2d_3">
      <path d="M 42.11149 194.936229 
L 619.49976 194.936229 
" clip-path="url(#pcae5e3d79e)" style="fill: none; stroke: #ffffff; stroke-linecap: round"/>
     </g>
     <g id="text_3">
      <!-- 0 -->
      <g style="fill: #262626" transform="translate(25.61274 199.115369)scale(0.11 -0.11)">
       <use xlink:href="#DejaVuSans-30"/>
      </g>
     </g>
    </g>
    <g id="ytick_2">
     <g id="line2d_4">
      <path d="M 42.11149 151.054023 
L 619.49976 151.054023 
" clip-path="url(#pcae5e3d79e)" style="fill: none; stroke: #ffffff; stroke-linecap: round"/>
     </g>
     <g id="text_4">
      <!-- 10 -->
      <g style="fill: #262626" transform="translate(18.61399 155.233163)scale(0.11 -0.11)">
       <use xlink:href="#DejaVuSans-31"/>
       <use xlink:href="#DejaVuSans-30" x="63.623047"/>
      </g>
     </g>
    </g>
    <g id="ytick_3">
     <g id="line2d_5">
      <path d="M 42.11149 107.171817 
L 619.49976 107.171817 
" clip-path="url(#pcae5e3d79e)" style="fill: none; stroke: #ffffff; stroke-linecap: round"/>
     </g>
     <g id="text_5">
      <!-- 20 -->
      <g style="fill: #262626" transform="translate(18.61399 111.350957)scale(0.11 -0.11)">
       <defs>
        <path id="DejaVuSans-32" d="M 1228 531 
L 3431 531 
L 3431 0 
L 469 0 
L 469 531 
Q 828 903 1448 1529 
Q 2069 2156 2228 2338 
Q 2531 2678 2651 2914 
Q 2772 3150 2772 3378 
Q 2772 3750 2511 3984 
Q 2250 4219 1831 4219 
Q 1534 4219 1204 4116 
Q 875 4013 500 3803 
L 500 4441 
Q 881 4594 1212 4672 
Q 1544 4750 1819 4750 
Q 2544 4750 2975 4387 
Q 3406 4025 3406 3419 
Q 3406 3131 3298 2873 
Q 3191 2616 2906 2266 
Q 2828 2175 2409 1742 
Q 1991 1309 1228 531 
z
" transform="scale(0.015625)"/>
       </defs>
       <use xlink:href="#DejaVuSans-32"/>
       <use xlink:href="#DejaVuSans-30" x="63.623047"/>
      </g>
     </g>
    </g>
    <g id="ytick_4">
     <g id="line2d_6">
      <path d="M 42.11149 63.289611 
L 619.49976 63.289611 
" clip-path="url(#pcae5e3d79e)" style="fill: none; stroke: #ffffff; stroke-linecap: round"/>
     </g>
     <g id="text_6">
      <!-- 30 -->
      <g style="fill: #262626" transform="translate(18.61399 67.468751)scale(0.11 -0.11)">
       <defs>
        <path id="DejaVuSans-33" d="M 2597 2516 
Q 3050 2419 3304 2112 
Q 3559 1806 3559 1356 
Q 3559 666 3084 287 
Q 2609 -91 1734 -91 
Q 1441 -91 1130 -33 
Q 819 25 488 141 
L 488 750 
Q 750 597 1062 519 
Q 1375 441 1716 441 
Q 2309 441 2620 675 
Q 2931 909 2931 1356 
Q 2931 1769 2642 2001 
Q 2353 2234 1838 2234 
L 1294 2234 
L 1294 2753 
L 1863 2753 
Q 2328 2753 2575 2939 
Q 2822 3125 2822 3475 
Q 2822 3834 2567 4026 
Q 2313 4219 1838 4219 
Q 1578 4219 1281 4162 
Q 984 4106 628 3988 
L 628 4550 
Q 988 4650 1302 4700 
Q 1616 4750 1894 4750 
Q 2613 4750 3031 4423 
Q 3450 4097 3450 3541 
Q 3450 3153 3228 2886 
Q 3006 2619 2597 2516 
z
" transform="scale(0.015625)"/>
       </defs>
       <use xlink:href="#DejaVuSans-33"/>
       <use xlink:href="#DejaVuSans-30" x="63.623047"/>
      </g>
     </g>
    </g>
    <g id="ytick_5">
     <g id="line2d_7">
      <path d="M 42.11149 19.407405 
L 619.49976 19.407405 
" clip-path="url(#pcae5e3d79e)" style="fill: none; stroke: #ffffff; stroke-linecap: round"/>
     </g>
     <g id="text_7">
      <!-- 40 -->
      <g style="fill: #262626" transform="translate(18.61399 23.586545)scale(0.11 -0.11)">
       <defs>
        <path id="DejaVuSans-34" d="M 2419 4116 
L 825 1625 
L 2419 1625 
L 2419 4116 
z
M 2253 4666 
L 3047 4666 
L 3047 1625 
L 3713 1625 
L 3713 1100 
L 3047 1100 
L 3047 0 
L 2419 0 
L 2419 1100 
L 313 1100 
L 313 1709 
L 2253 4666 
z
" transform="scale(0.015625)"/>
       </defs>
       <use xlink:href="#DejaVuSans-34"/>
       <use xlink:href="#DejaVuSans-30" x="63.623047"/>
      </g>
     </g>
    </g>
    <g id="text_8">
     <!-- training time (hours) -->
     <g style="fill: #262626" transform="translate(12.118365 168.690109)rotate(-90)scale(0.12 -0.12)">
      <defs>
       <path id="DejaVuSans-61" d="M 2194 1759 
Q 1497 1759 1228 1600 
Q 959 1441 959 1056 
Q 959 750 1161 570 
Q 1363 391 1709 391 
Q 2188 391 2477 730 
Q 2766 1069 2766 1631 
L 2766 1759 
L 2194 1759 
z
M 3341 1997 
L 3341 0 
L 2766 0 
L 2766 531 
Q 2569 213 2275 61 
Q 1981 -91 1556 -91 
Q 1019 -91 701 211 
Q 384 513 384 1019 
Q 384 1609 779 1909 
Q 1175 2209 1959 2209 
L 2766 2209 
L 2766 2266 
Q 2766 2663 2505 2880 
Q 2244 3097 1772 3097 
Q 1472 3097 1187 3025 
Q 903 2953 641 2809 
L 641 3341 
Q 956 3463 1253 3523 
Q 1550 3584 1831 3584 
Q 2591 3584 2966 3190 
Q 3341 2797 3341 1997 
z
" transform="scale(0.015625)"/>
       <path id="DejaVuSans-69" d="M 603 3500 
L 1178 3500 
L 1178 0 
L 603 0 
L 603 3500 
z
M 603 4863 
L 1178 4863 
L 1178 4134 
L 603 4134 
L 603 4863 
z
" transform="scale(0.015625)"/>
       <path id="DejaVuSans-67" d="M 2906 1791 
Q 2906 2416 2648 2759 
Q 2391 3103 1925 3103 
Q 1463 3103 1205 2759 
Q 947 2416 947 1791 
Q 947 1169 1205 825 
Q 1463 481 1925 481 
Q 2391 481 2648 825 
Q 2906 1169 2906 1791 
z
M 3481 434 
Q 3481 -459 3084 -895 
Q 2688 -1331 1869 -1331 
Q 1566 -1331 1297 -1286 
Q 1028 -1241 775 -1147 
L 775 -588 
Q 1028 -725 1275 -790 
Q 1522 -856 1778 -856 
Q 2344 -856 2625 -561 
Q 2906 -266 2906 331 
L 2906 616 
Q 2728 306 2450 153 
Q 2172 0 1784 0 
Q 1141 0 747 490 
Q 353 981 353 1791 
Q 353 2603 747 3093 
Q 1141 3584 1784 3584 
Q 2172 3584 2450 3431 
Q 2728 3278 2906 2969 
L 2906 3500 
L 3481 3500 
L 3481 434 
z
" transform="scale(0.015625)"/>
       <path id="DejaVuSans-6d" d="M 3328 2828 
Q 3544 3216 3844 3400 
Q 4144 3584 4550 3584 
Q 5097 3584 5394 3201 
Q 5691 2819 5691 2113 
L 5691 0 
L 5113 0 
L 5113 2094 
Q 5113 2597 4934 2840 
Q 4756 3084 4391 3084 
Q 3944 3084 3684 2787 
Q 3425 2491 3425 1978 
L 3425 0 
L 2847 0 
L 2847 2094 
Q 2847 2600 2669 2842 
Q 2491 3084 2119 3084 
Q 1678 3084 1418 2786 
Q 1159 2488 1159 1978 
L 1159 0 
L 581 0 
L 581 3500 
L 1159 3500 
L 1159 2956 
Q 1356 3278 1631 3431 
Q 1906 3584 2284 3584 
Q 2666 3584 2933 3390 
Q 3200 3197 3328 2828 
z
" transform="scale(0.015625)"/>
       <path id="DejaVuSans-68" d="M 3513 2113 
L 3513 0 
L 2938 0 
L 2938 2094 
Q 2938 2591 2744 2837 
Q 2550 3084 2163 3084 
Q 1697 3084 1428 2787 
Q 1159 2491 1159 1978 
L 1159 0 
L 581 0 
L 581 4863 
L 1159 4863 
L 1159 2956 
Q 1366 3272 1645 3428 
Q 1925 3584 2291 3584 
Q 2894 3584 3203 3211 
Q 3513 2838 3513 2113 
z
" transform="scale(0.015625)"/>
      </defs>
      <use xlink:href="#DejaVuSans-74"/>
      <use xlink:href="#DejaVuSans-72" x="39.208984"/>
      <use xlink:href="#DejaVuSans-61" x="80.322266"/>
      <use xlink:href="#DejaVuSans-69" x="141.601562"/>
      <use xlink:href="#DejaVuSans-6e" x="169.384766"/>
      <use xlink:href="#DejaVuSans-69" x="232.763672"/>
      <use xlink:href="#DejaVuSans-6e" x="260.546875"/>
      <use xlink:href="#DejaVuSans-67" x="323.925781"/>
      <use xlink:href="#DejaVuSans-20" x="387.402344"/>
      <use xlink:href="#DejaVuSans-74" x="419.189453"/>
      <use xlink:href="#DejaVuSans-69" x="458.398438"/>
      <use xlink:href="#DejaVuSans-6d" x="486.181641"/>
      <use xlink:href="#DejaVuSans-65" x="583.59375"/>
      <use xlink:href="#DejaVuSans-20" x="645.117188"/>
      <use xlink:href="#DejaVuSans-28" x="676.904297"/>
      <use xlink:href="#DejaVuSans-68" x="715.917969"/>
      <use xlink:href="#DejaVuSans-6f" x="779.296875"/>
      <use xlink:href="#DejaVuSans-75" x="840.478516"/>
      <use xlink:href="#DejaVuSans-72" x="903.857422"/>
      <use xlink:href="#DejaVuSans-73" x="944.970703"/>
      <use xlink:href="#DejaVuSans-29" x="997.070312"/>
     </g>
    </g>
   </g>
   <g id="patch_3">
    <path d="M 114.285024 194.936229 
L 150.371791 194.936229 
L 150.371791 186.818021 
L 114.285024 186.818021 
z
" clip-path="url(#pcae5e3d79e)" style="fill: #ffcd17; stroke: #ffffff; stroke-linejoin: miter"/>
   </g>
   <g id="patch_4">
    <path d="M 402.979159 194.936229 
L 439.065926 194.936229 
L 439.065926 174.201886 
L 402.979159 174.201886 
z
" clip-path="url(#pcae5e3d79e)" style="fill: #ffcd17; stroke: #ffffff; stroke-linejoin: miter"/>
   </g>
   <g id="patch_5">
    <path d="M 150.371791 194.936229 
L 186.458557 194.936229 
L 186.458557 181.771567 
L 150.371791 181.771567 
z
" clip-path="url(#pcae5e3d79e)" style="fill: #dddddd; stroke: #ffffff; stroke-linejoin: miter"/>
   </g>
   <g id="patch_6">
    <path d="M 439.065926 194.936229 
L 475.152692 194.936229 
L 475.152692 194.936229 
L 439.065926 194.936229 
z
" clip-path="url(#pcae5e3d79e)" style="fill: #dddddd; stroke: #ffffff; stroke-linejoin: miter"/>
   </g>
   <g id="patch_7">
    <path d="M 186.458557 194.936229 
L 222.545324 194.936229 
L 222.545324 169.594255 
L 186.458557 169.594255 
z
" clip-path="url(#pcae5e3d79e)" style="fill: #aaaaaa; stroke: #ffffff; stroke-linejoin: miter"/>
   </g>
   <g id="patch_8">
    <path d="M 475.152692 194.936229 
L 511.239459 194.936229 
L 511.239459 49.247305 
L 475.152692 49.247305 
z
" clip-path="url(#pcae5e3d79e)" style="fill: #aaaaaa; stroke: #ffffff; stroke-linejoin: miter"/>
   </g>
   <g id="patch_9">
    <path d="M 222.545324 194.936229 
L 258.632091 194.936229 
L 258.632091 170.362193 
L 222.545324 170.362193 
z
" clip-path="url(#pcae5e3d79e)" style="fill: #777777; stroke: #ffffff; stroke-linejoin: miter"/>
   </g>
   <g id="patch_10">
    <path d="M 511.239459 194.936229 
L 547.326226 194.936229 
L 547.326226 26.538263 
L 511.239459 26.538263 
z
" clip-path="url(#pcae5e3d79e)" style="fill: #777777; stroke: #ffffff; stroke-linejoin: miter"/>
   </g>
   <g id="patch_11">
    <path d="M 42.11149 194.936229 
L 42.11149 18.118365 
" style="fill: none; stroke: #ffffff; stroke-width: 1.25; stroke-linejoin: miter; stroke-linecap: square"/>
   </g>
   <g id="patch_12">
    <path d="M 619.49976 194.936229 
L 619.49976 18.118365 
" style="fill: none; stroke: #ffffff; stroke-width: 1.25; stroke-linejoin: miter; stroke-linecap: square"/>
   </g>
   <g id="patch_13">
    <path d="M 42.11149 194.936229 
L 619.49976 194.936229 
" style="fill: none; stroke: #ffffff; stroke-width: 1.25; stroke-linejoin: miter; stroke-linecap: square"/>
   </g>
   <g id="patch_14">
    <path d="M 42.11149 18.118365 
L 619.49976 18.118365 
" style="fill: none; stroke: #ffffff; stroke-width: 1.25; stroke-linejoin: miter; stroke-linecap: square"/>
   </g>
   <g id="text_9">
    <!-- (90 Epoch) ImageNet Training -->
    <g style="fill: #262626" transform="translate(241.399062 12.118365)scale(0.12 -0.12)">
     <defs>
      <path id="DejaVuSans-39" d="M 703 97 
L 703 672 
Q 941 559 1184 500 
Q 1428 441 1663 441 
Q 2288 441 2617 861 
Q 2947 1281 2994 2138 
Q 2813 1869 2534 1725 
Q 2256 1581 1919 1581 
Q 1219 1581 811 2004 
Q 403 2428 403 3163 
Q 403 3881 828 4315 
Q 1253 4750 1959 4750 
Q 2769 4750 3195 4129 
Q 3622 3509 3622 2328 
Q 3622 1225 3098 567 
Q 2575 -91 1691 -91 
Q 1453 -91 1209 -44 
Q 966 3 703 97 
z
M 1959 2075 
Q 2384 2075 2632 2365 
Q 2881 2656 2881 3163 
Q 2881 3666 2632 3958 
Q 2384 4250 1959 4250 
Q 1534 4250 1286 3958 
Q 1038 3666 1038 3163 
Q 1038 2656 1286 2365 
Q 1534 2075 1959 2075 
z
" transform="scale(0.015625)"/>
      <path id="DejaVuSans-45" d="M 628 4666 
L 3578 4666 
L 3578 4134 
L 1259 4134 
L 1259 2753 
L 3481 2753 
L 3481 2222 
L 1259 2222 
L 1259 531 
L 3634 531 
L 3634 0 
L 628 0 
L 628 4666 
z
" transform="scale(0.015625)"/>
      <path id="DejaVuSans-70" d="M 1159 525 
L 1159 -1331 
L 581 -1331 
L 581 3500 
L 1159 3500 
L 1159 2969 
Q 1341 3281 1617 3432 
Q 1894 3584 2278 3584 
Q 2916 3584 3314 3078 
Q 3713 2572 3713 1747 
Q 3713 922 3314 415 
Q 2916 -91 2278 -91 
Q 1894 -91 1617 61 
Q 1341 213 1159 525 
z
M 3116 1747 
Q 3116 2381 2855 2742 
Q 2594 3103 2138 3103 
Q 1681 3103 1420 2742 
Q 1159 2381 1159 1747 
Q 1159 1113 1420 752 
Q 1681 391 2138 391 
Q 2594 391 2855 752 
Q 3116 1113 3116 1747 
z
" transform="scale(0.015625)"/>
      <path id="DejaVuSans-49" d="M 628 4666 
L 1259 4666 
L 1259 0 
L 628 0 
L 628 4666 
z
" transform="scale(0.015625)"/>
      <path id="DejaVuSans-54" d="M -19 4666 
L 3928 4666 
L 3928 4134 
L 2272 4134 
L 2272 0 
L 1638 0 
L 1638 4134 
L -19 4134 
L -19 4666 
z
" transform="scale(0.015625)"/>
     </defs>
     <use xlink:href="#DejaVuSans-28"/>
     <use xlink:href="#DejaVuSans-39" x="39.013672"/>
     <use xlink:href="#DejaVuSans-30" x="102.636719"/>
     <use xlink:href="#DejaVuSans-20" x="166.259766"/>
     <use xlink:href="#DejaVuSans-45" x="198.046875"/>
     <use xlink:href="#DejaVuSans-70" x="261.230469"/>
     <use xlink:href="#DejaVuSans-6f" x="324.707031"/>
     <use xlink:href="#DejaVuSans-63" x="385.888672"/>
     <use xlink:href="#DejaVuSans-68" x="440.869141"/>
     <use xlink:href="#DejaVuSans-29" x="504.248047"/>
     <use xlink:href="#DejaVuSans-20" x="543.261719"/>
     <use xlink:href="#DejaVuSans-49" x="575.048828"/>
     <use xlink:href="#DejaVuSans-6d" x="604.541016"/>
     <use xlink:href="#DejaVuSans-61" x="701.953125"/>
     <use xlink:href="#DejaVuSans-67" x="763.232422"/>
     <use xlink:href="#DejaVuSans-65" x="826.708984"/>
     <use xlink:href="#DejaVuSans-4e" x="888.232422"/>
     <use xlink:href="#DejaVuSans-65" x="963.037109"/>
     <use xlink:href="#DejaVuSans-74" x="1024.560547"/>
     <use xlink:href="#DejaVuSans-20" x="1063.769531"/>
     <use xlink:href="#DejaVuSans-54" x="1095.556641"/>
     <use xlink:href="#DejaVuSans-72" x="1141.890625"/>
     <use xlink:href="#DejaVuSans-61" x="1183.003906"/>
     <use xlink:href="#DejaVuSans-69" x="1244.283203"/>
     <use xlink:href="#DejaVuSans-6e" x="1272.066406"/>
     <use xlink:href="#DejaVuSans-69" x="1335.445312"/>
     <use xlink:href="#DejaVuSans-6e" x="1363.228516"/>
     <use xlink:href="#DejaVuSans-67" x="1426.607422"/>
    </g>
   </g>
   <g id="legend_1">
    <g id="patch_15">
     <path d="M 49.81149 91.502115 
L 181.957584 91.502115 
Q 184.157584 91.502115 184.157584 89.302115 
L 184.157584 25.818365 
Q 184.157584 23.618365 181.957584 23.618365 
L 49.81149 23.618365 
Q 47.61149 23.618365 47.61149 25.818365 
L 47.61149 89.302115 
Q 47.61149 91.502115 49.81149 91.502115 
z
" style="fill: #eaeaf2; opacity: 0.8; stroke: #cccccc; stroke-linejoin: miter"/>
    </g>
    <g id="patch_16">
     <path d="M 52.01149 36.376646 
L 74.01149 36.376646 
L 74.01149 28.676646 
L 52.01149 28.676646 
z
" style="fill: #ffcd17; stroke: #ffffff; stroke-linejoin: miter"/>
    </g>
    <g id="text_10">
     <!-- FFCV -->
     <g style="fill: #262626" transform="translate(82.81149 36.376646)scale(0.11 -0.11)">
      <defs>
       <path id="DejaVuSans-46" d="M 628 4666 
L 3309 4666 
L 3309 4134 
L 1259 4134 
L 1259 2759 
L 3109 2759 
L 3109 2228 
L 1259 2228 
L 1259 0 
L 628 0 
L 628 4666 
z
" transform="scale(0.015625)"/>
       <path id="DejaVuSans-56" d="M 1831 0 
L 50 4666 
L 709 4666 
L 2188 738 
L 3669 4666 
L 4325 4666 
L 2547 0 
L 1831 0 
z
" transform="scale(0.015625)"/>
      </defs>
      <use xlink:href="#DejaVuSans-46"/>
      <use xlink:href="#DejaVuSans-46" x="57.519531"/>
      <use xlink:href="#DejaVuSans-43" x="115.039062"/>
      <use xlink:href="#DejaVuSans-56" x="184.863281"/>
     </g>
    </g>
    <g id="patch_17">
     <path d="M 52.01149 52.522584 
L 74.01149 52.522584 
L 74.01149 44.822584 
L 52.01149 44.822584 
z
" style="fill: #dddddd; stroke: #ffffff; stroke-linejoin: miter"/>
    </g>
    <g id="text_11">
     <!-- NVIDIA PyTorch -->
     <g style="fill: #262626" transform="translate(82.81149 52.522584)scale(0.11 -0.11)">
      <defs>
       <path id="DejaVuSans-44" d="M 1259 4147 
L 1259 519 
L 2022 519 
Q 2988 519 3436 956 
Q 3884 1394 3884 2338 
Q 3884 3275 3436 3711 
Q 2988 4147 2022 4147 
L 1259 4147 
z
M 628 4666 
L 1925 4666 
Q 3281 4666 3915 4102 
Q 4550 3538 4550 2338 
Q 4550 1131 3912 565 
Q 3275 0 1925 0 
L 628 0 
L 628 4666 
z
" transform="scale(0.015625)"/>
       <path id="DejaVuSans-79" d="M 2059 -325 
Q 1816 -950 1584 -1140 
Q 1353 -1331 966 -1331 
L 506 -1331 
L 506 -850 
L 844 -850 
Q 1081 -850 1212 -737 
Q 1344 -625 1503 -206 
L 1606 56 
L 191 3500 
L 800 3500 
L 1894 763 
L 2988 3500 
L 3597 3500 
L 2059 -325 
z
" transform="scale(0.015625)"/>
      </defs>
      <use xlink:href="#DejaVuSans-4e"/>
      <use xlink:href="#DejaVuSans-56" x="74.804688"/>
      <use xlink:href="#DejaVuSans-49" x="143.212891"/>
      <use xlink:href="#DejaVuSans-44" x="172.705078"/>
      <use xlink:href="#DejaVuSans-49" x="249.707031"/>
      <use xlink:href="#DejaVuSans-41" x="279.199219"/>
      <use xlink:href="#DejaVuSans-20" x="347.607422"/>
      <use xlink:href="#DejaVuSans-50" x="379.394531"/>
      <use xlink:href="#DejaVuSans-79" x="439.697266"/>
      <use xlink:href="#DejaVuSans-54" x="498.876953"/>
      <use xlink:href="#DejaVuSans-6f" x="542.960938"/>
      <use xlink:href="#DejaVuSans-72" x="604.142578"/>
      <use xlink:href="#DejaVuSans-63" x="643.005859"/>
      <use xlink:href="#DejaVuSans-68" x="697.986328"/>
     </g>
    </g>
    <g id="patch_18">
     <path d="M 52.01149 68.668521 
L 74.01149 68.668521 
L 74.01149 60.968521 
L 52.01149 60.968521 
z
" style="fill: #aaaaaa; stroke: #ffffff; stroke-linejoin: miter"/>
    </g>
    <g id="text_12">
     <!-- PyTorch Example -->
     <g style="fill: #262626" transform="translate(82.81149 68.668521)scale(0.11 -0.11)">
      <defs>
       <path id="DejaVuSans-6c" d="M 603 4863 
L 1178 4863 
L 1178 0 
L 603 0 
L 603 4863 
z
" transform="scale(0.015625)"/>
      </defs>
      <use xlink:href="#DejaVuSans-50"/>
      <use xlink:href="#DejaVuSans-79" x="60.302734"/>
      <use xlink:href="#DejaVuSans-54" x="119.482422"/>
      <use xlink:href="#DejaVuSans-6f" x="163.566406"/>
      <use xlink:href="#DejaVuSans-72" x="224.748047"/>
      <use xlink:href="#DejaVuSans-63" x="263.611328"/>
      <use xlink:href="#DejaVuSans-68" x="318.591797"/>
      <use xlink:href="#DejaVuSans-20" x="381.970703"/>
      <use xlink:href="#DejaVuSans-45" x="413.757812"/>
      <use xlink:href="#DejaVuSans-78" x="476.941406"/>
      <use xlink:href="#DejaVuSans-61" x="536.121094"/>
      <use xlink:href="#DejaVuSans-6d" x="597.400391"/>
      <use xlink:href="#DejaVuSans-70" x="694.8125"/>
      <use xlink:href="#DejaVuSans-6c" x="758.289062"/>
      <use xlink:href="#DejaVuSans-65" x="786.072266"/>
     </g>
    </g>
    <g id="patch_19">
     <path d="M 52.01149 84.814459 
L 74.01149 84.814459 
L 74.01149 77.114459 
L 52.01149 77.114459 
z
" style="fill: #777777; stroke: #ffffff; stroke-linejoin: miter"/>
    </g>
    <g id="text_13">
     <!-- PyTorch Lightning -->
     <g style="fill: #262626" transform="translate(82.81149 84.814459)scale(0.11 -0.11)">
      <defs>
       <path id="DejaVuSans-4c" d="M 628 4666 
L 1259 4666 
L 1259 531 
L 3531 531 
L 3531 0 
L 628 0 
L 628 4666 
z
" transform="scale(0.015625)"/>
      </defs>
      <use xlink:href="#DejaVuSans-50"/>
      <use xlink:href="#DejaVuSans-79" x="60.302734"/>
      <use xlink:href="#DejaVuSans-54" x="119.482422"/>
      <use xlink:href="#DejaVuSans-6f" x="163.566406"/>
      <use xlink:href="#DejaVuSans-72" x="224.748047"/>
      <use xlink:href="#DejaVuSans-63" x="263.611328"/>
      <use xlink:href="#DejaVuSans-68" x="318.591797"/>
      <use xlink:href="#DejaVuSans-20" x="381.970703"/>
      <use xlink:href="#DejaVuSans-4c" x="413.757812"/>
      <use xlink:href="#DejaVuSans-69" x="469.470703"/>
      <use xlink:href="#DejaVuSans-67" x="497.253906"/>
      <use xlink:href="#DejaVuSans-68" x="560.730469"/>
      <use xlink:href="#DejaVuSans-74" x="624.109375"/>
      <use xlink:href="#DejaVuSans-6e" x="663.318359"/>
      <use xlink:href="#DejaVuSans-69" x="726.697266"/>
      <use xlink:href="#DejaVuSans-6e" x="754.480469"/>
      <use xlink:href="#DejaVuSans-67" x="817.859375"/>
     </g>
    </g>
   </g>
  </g>
 </g>
 <defs>
  <clipPath id="pcae5e3d79e">
   <rect x="42.11149" y="18.118365" width="577.38827" height="176.817864"/>
  </clipPath>
 </defs>
</svg>
